<?xml version="1.0" encoding="utf-8"?>
<!-- Generator: Adobe Illustrator 21.0.0, SVG Export Plug-In . SVG Version: 6.00 Build 0)  -->
<svg version="1.1" id="Layer_1" xmlns="http://www.w3.org/2000/svg" xmlns:xlink="http://www.w3.org/1999/xlink" x="0px" y="0px"
	 viewBox="0 0 631.8 573.9" style="enable-background:new 0 0 631.8 573.9;" xml:space="preserve">
<style type="text/css">
	.st0{clip-path:url(#SVGID_2_);}
	.st1{fill:#010101;}
	.st2{clip-path:url(#SVGID_4_);}
	.st3{clip-path:url(#SVGID_6_);}
	.st4{clip-path:url(#SVGID_8_);}
	.st5{clip-path:url(#SVGID_10_);}
	.st6{clip-path:url(#SVGID_12_);}
	.st7{opacity:0.1;enable-background:new    ;}
	.st8{fill:none;}
</style>
<g>
	<g id="path4013_2_">
		<g>
			<defs>
				<path id="SVGID_1_" d="M479.4,514.5c0,0,4.1-4,3.3-4.6c-0.8-0.6-3.8,1.6-3.8,1.6s-0.5,0.4-1.2,0.9l2.4-1.5c0,0-0.2,1.4-2.2,3.4
					c0,0-0.6,0.6-1.6,1.5c-5.8,5.7-14.5,12.2-14.5,12.2l2.4-1.3C472.4,521.7,479.4,514.5,479.4,514.5z"/>
			</defs>
			<use xlink:href="#SVGID_1_"  style="overflow:visible;fill:#010101;"/>
			<clipPath id="SVGID_2_">
				<use xlink:href="#SVGID_1_"  style="overflow:visible;"/>
			</clipPath>
			<g class="st0">
				<polygon class="st1" points="469.9,509.4 461.9,512 461.9,509.4 				"/>
			</g>
			<g class="st0">
				<polygon class="st1" points="478.1,509.4 461.9,514.7 461.9,512 469.9,509.4 				"/>
			</g>
			<g class="st0">
				<polygon class="st1" points="483.5,510.3 461.9,517.4 461.9,514.7 478.1,509.4 483.5,509.4 				"/>
			</g>
			<g class="st0">
				<polygon class="st1" points="483.5,513 461.9,520.1 461.9,517.4 483.5,510.3 				"/>
			</g>
			<g class="st0">
				<polygon class="st1" points="483.5,515.7 461.9,522.8 461.9,520.1 483.5,513 				"/>
			</g>
			<g class="st0">
				<polygon class="st1" points="483.5,518.4 461.9,525.5 461.9,522.8 483.5,515.7 				"/>
			</g>
			<g class="st0">
				<polygon class="st1" points="483.5,521.2 462.8,527.9 461.9,527.9 461.9,525.5 483.5,518.4 				"/>
			</g>
			<g class="st0">
				<polygon class="st1" points="483.5,523.9 471.1,527.9 462.8,527.9 483.5,521.2 				"/>
			</g>
			<g class="st0">
				<polygon class="st1" points="483.5,526.6 479.3,527.9 471.1,527.9 483.5,523.9 				"/>
			</g>
			<g class="st0">
				<polygon class="st1" points="479.3,527.9 483.5,526.6 483.5,527.9 				"/>
			</g>
		</g>
	</g>
	<g id="path4065_2_">
		<g>
			<defs>
				<path id="SVGID_3_" d="M259.9,557.2c5.7,1.1,10.5,2.2,11.5,2.4C269.4,559,265.7,557.9,259.9,557.2z"/>
			</defs>
			<use xlink:href="#SVGID_3_"  style="overflow:visible;fill:#010101;"/>
			<clipPath id="SVGID_4_">
				<use xlink:href="#SVGID_3_"  style="overflow:visible;"/>
			</clipPath>
			<g class="st2">
				<rect x="259.9" y="557.2" class="st1" width="11.5" height="2.4"/>
			</g>
		</g>
	</g>
	<g id="path4086_2_">
		<g>
			<defs>
				<path id="SVGID_5_" d="M278.7,565.2c0.8,0.1,1.6,0.2,2.4,0.3c-0.7-0.1-1.9-0.3-3.4-0.4C278,565.1,278.3,565.2,278.7,565.2z"/>
			</defs>
			<use xlink:href="#SVGID_5_"  style="overflow:visible;fill:#010101;"/>
			<clipPath id="SVGID_6_">
				<use xlink:href="#SVGID_5_"  style="overflow:visible;"/>
			</clipPath>
			<g class="st3">
				<polygon class="st1" points="281,565.5 278.9,565 281,565 281,565.5 				"/>
			</g>
			<g class="st3">
				<polygon class="st1" points="281,565.5 278.9,565 278.9,565 281,565.5 				"/>
			</g>
			<g class="st3">
				<polygon class="st1" points="280.9,565.5 278.8,565 278.9,565 281,565.5 				"/>
			</g>
			<g class="st3">
				<polygon class="st1" points="280.9,565.5 278.8,565 278.8,565 280.9,565.5 				"/>
			</g>
			<g class="st3">
				<polygon class="st1" points="280.8,565.5 278.7,565 278.8,565 280.9,565.5 				"/>
			</g>
			<g class="st3">
				<polygon class="st1" points="280.8,565.5 278.7,565 278.7,565 280.8,565.5 				"/>
			</g>
			<g class="st3">
				<polygon class="st1" points="280.7,565.5 278.7,565 278.7,565 280.8,565.5 				"/>
			</g>
			<g class="st3">
				<polygon class="st1" points="280.7,565.5 278.6,565 278.7,565 280.7,565.5 				"/>
			</g>
			<g class="st3">
				<polygon class="st1" points="280.6,565.5 278.6,565 278.6,565 280.7,565.5 				"/>
			</g>
			<g class="st3">
				<polygon class="st1" points="280.6,565.5 278.5,565 278.6,565 280.6,565.5 				"/>
			</g>
			<g class="st3">
				<polygon class="st1" points="280.6,565.5 278.5,565 278.5,565 280.6,565.5 				"/>
			</g>
			<g class="st3">
				<polygon class="st1" points="280.5,565.5 278.4,565 278.5,565 280.6,565.5 				"/>
			</g>
			<g class="st3">
				<polygon class="st1" points="280.5,565.5 278.4,565 278.4,565 280.5,565.5 				"/>
			</g>
			<g class="st3">
				<polygon class="st1" points="280.4,565.5 278.3,565 278.4,565 280.5,565.5 				"/>
			</g>
			<g class="st3">
				<polygon class="st1" points="280.4,565.5 278.3,565 278.3,565 280.4,565.5 				"/>
			</g>
			<g class="st3">
				<polygon class="st1" points="280.3,565.5 278.2,565 278.3,565 280.4,565.5 				"/>
			</g>
			<g class="st3">
				<polygon class="st1" points="280.3,565.5 278.2,565 278.2,565 280.3,565.5 				"/>
			</g>
			<g class="st3">
				<polygon class="st1" points="280.2,565.5 278.1,565 278.2,565 280.3,565.5 				"/>
			</g>
			<g class="st3">
				<polygon class="st1" points="280.2,565.5 278.1,565 278.1,565 280.2,565.5 				"/>
			</g>
			<g class="st3">
				<polygon class="st1" points="280.1,565.5 278,565 278.1,565 280.2,565.5 				"/>
			</g>
			<g class="st3">
				<polygon class="st1" points="280.1,565.5 278,565 278,565 280.1,565.5 				"/>
			</g>
			<g class="st3">
				<polygon class="st1" points="280,565.5 277.9,565 278,565 280.1,565.5 				"/>
			</g>
			<g class="st3">
				<polygon class="st1" points="280,565.5 277.9,565 277.9,565 280,565.5 				"/>
			</g>
			<g class="st3">
				<polygon class="st1" points="279.9,565.5 277.9,565 277.9,565 280,565.5 				"/>
			</g>
			<g class="st3">
				<polygon class="st1" points="279.9,565.5 277.8,565 277.9,565 279.9,565.5 				"/>
			</g>
			<g class="st3">
				<polygon class="st1" points="279.9,565.5 277.8,565 277.8,565 279.9,565.5 				"/>
			</g>
			<g class="st3">
				<polygon class="st1" points="279.8,565.5 277.7,565 277.8,565 279.9,565.5 				"/>
			</g>
			<g class="st3">
				<polygon class="st1" points="279.8,565.5 277.7,565 277.7,565 279.8,565.5 				"/>
			</g>
			<g class="st3">
				<polygon class="st1" points="279.7,565.5 277.6,565 277.6,565 277.7,565 279.8,565.5 				"/>
			</g>
			<g class="st3">
				<polygon class="st1" points="277.6,565 279.7,565.5 277.6,565.5 				"/>
			</g>
		</g>
	</g>
	<g id="path4118_2_">
		<g>
			<defs>
				<path id="SVGID_7_" d="M241.3,556.7c2.3,0.7,4.1,0.4,4.8,0.2c-4.1,0.2-8.2-1.7-8.2-1.7s-0.4-0.1-1-0.4
					C238.4,555.6,240.1,556.3,241.3,556.7z"/>
			</defs>
			<use xlink:href="#SVGID_7_"  style="overflow:visible;fill:#010101;"/>
			<clipPath id="SVGID_8_">
				<use xlink:href="#SVGID_7_"  style="overflow:visible;"/>
			</clipPath>
			<g class="st4">
				<rect x="236.9" y="554.9" class="st1" width="9.2" height="2.5"/>
			</g>
		</g>
	</g>
	<g id="path4217_2_">
		<g>
			<path class="st1" d="M95.4,195.2"/>
		</g>
	</g>
	<g id="path4246_2_">
		<g>
			<defs>
				<path id="SVGID_9_" d="M22.1,305.8L22.1,305.8L22.1,305.8z"/>
			</defs>
			<use xlink:href="#SVGID_9_"  style="overflow:visible;fill:#010101;"/>
			<clipPath id="SVGID_10_">
				<use xlink:href="#SVGID_9_"  style="overflow:visible;"/>
			</clipPath>
			<g class="st5">
				<path class="st1" d="M22.1,305.8L22.1,305.8L22.1,305.8z"/>
			</g>
			<g class="st5">
				<path class="st1" d="M22.1,305.8L22.1,305.8L22.1,305.8z"/>
			</g>
			<g class="st5">
				<path class="st1" d="M22.1,305.8L22.1,305.8L22.1,305.8z"/>
			</g>
			<g class="st5">
				<path class="st1" d="M22.1,305.8L22.1,305.8L22.1,305.8z"/>
			</g>
			<g class="st5">
				<path class="st1" d="M22.1,305.8L22.1,305.8L22.1,305.8z"/>
			</g>
			<g class="st5">
				<path class="st1" d="M22.1,305.8L22.1,305.8L22.1,305.8z"/>
			</g>
			<g class="st5">
				<path class="st1" d="M22.1,305.8L22.1,305.8L22.1,305.8z"/>
			</g>
			<g class="st5">
				<path class="st1" d="M22.1,305.8L22.1,305.8L22.1,305.8z"/>
			</g>
			<g class="st5">
				<path class="st1" d="M22.1,305.8L22.1,305.8L22.1,305.8z"/>
			</g>
			<g class="st5">
				<path class="st1" d="M22.1,305.8L22.1,305.8L22.1,305.8z"/>
			</g>
			<g class="st5">
				<path class="st1" d="M22.1,305.8L22.1,305.8L22.1,305.8z"/>
			</g>
			<g class="st5">
				<path class="st1" d="M22.1,305.8L22.1,305.8L22.1,305.8z"/>
			</g>
			<g class="st5">
				<path class="st1" d="M22.1,305.8L22.1,305.8L22.1,305.8z"/>
			</g>
			<g class="st5">
				<path class="st1" d="M22.1,305.8L22.1,305.8L22.1,305.8z"/>
			</g>
			<g class="st5">
				<path class="st1" d="M22.1,305.8L22.1,305.8L22.1,305.8z"/>
			</g>
			<g class="st5">
				<path class="st1" d="M22.1,305.8L22.1,305.8L22.1,305.8z"/>
			</g>
			<g class="st5">
				<path class="st1" d="M22.1,305.8L22.1,305.8L22.1,305.8z"/>
			</g>
			<g class="st5">
				<path class="st1" d="M22.1,305.8L22.1,305.8L22.1,305.8z"/>
			</g>
			<g class="st5">
				<path class="st1" d="M22.1,305.8L22.1,305.8L22.1,305.8z"/>
			</g>
			<g class="st5">
				<path class="st1" d="M22.1,305.8L22.1,305.8L22.1,305.8z"/>
			</g>
			<g class="st5">
				<path class="st1" d="M22.1,305.8L22.1,305.8L22.1,305.8z"/>
			</g>
			<g class="st5">
				<path class="st1" d="M22.1,305.8L22.1,305.8L22.1,305.8z"/>
			</g>
			<g class="st5">
				<path class="st1" d="M22.1,305.8L22.1,305.8L22.1,305.8z"/>
			</g>
			<g class="st5">
				<path class="st1" d="M22.1,305.8L22.1,305.8L22.1,305.8z"/>
			</g>
			<g class="st5">
				<path class="st1" d="M22.1,305.8L22.1,305.8L22.1,305.8z"/>
			</g>
			<g class="st5">
				<path class="st1" d="M22.1,305.8L22.1,305.8L22.1,305.8z"/>
			</g>
			<g class="st5">
				<path class="st1" d="M22.1,305.8L22.1,305.8L22.1,305.8z"/>
			</g>
			<g class="st5">
				<path class="st1" d="M22.1,305.8L22.1,305.8L22.1,305.8z"/>
			</g>
			<g class="st5">
				<path class="st1" d="M22.1,305.8L22.1,305.8L22.1,305.8z"/>
			</g>
			<g class="st5">
				<path class="st1" d="M22.1,305.8L22.1,305.8L22.1,305.8z"/>
			</g>
			<g class="st5">
				<path class="st1" d="M22.1,305.8L22.1,305.8L22.1,305.8z"/>
			</g>
			<g class="st5">
				<path class="st1" d="M22.1,305.8L22.1,305.8L22.1,305.8z"/>
			</g>
			<g class="st5">
				<path class="st1" d="M22.1,305.8L22.1,305.8L22.1,305.8z"/>
			</g>
			<g class="st5">
				<path class="st1" d="M22.1,305.8L22.1,305.8L22.1,305.8z"/>
			</g>
			<g class="st5">
				<path class="st1" d="M22.1,305.8L22.1,305.8L22.1,305.8z"/>
			</g>
			<g class="st5">
				<path class="st1" d="M22.1,305.8L22.1,305.8L22.1,305.8z"/>
			</g>
			<g class="st5">
				<path class="st1" d="M22.1,305.8L22.1,305.8L22.1,305.8z"/>
			</g>
			<g class="st5">
				<path class="st1" d="M22.1,305.8L22.1,305.8L22.1,305.8z"/>
			</g>
			<g class="st5">
				<path class="st1" d="M22.1,305.8L22.1,305.8L22.1,305.8z"/>
			</g>
			<g class="st5">
				<path class="st1" d="M22.1,305.8L22.1,305.8L22.1,305.8z"/>
			</g>
			<g class="st5">
				<path class="st1" d="M22.1,305.8L22.1,305.8L22.1,305.8z"/>
			</g>
			<g class="st5">
				<path class="st1" d="M22.1,305.8L22.1,305.8L22.1,305.8z"/>
			</g>
			<g class="st5">
				<path class="st1" d="M22.1,305.8L22.1,305.8L22.1,305.8z"/>
			</g>
			<g class="st5">
				<path class="st1" d="M22.1,305.8L22.1,305.8L22.1,305.8z"/>
			</g>
			<g class="st5">
				<path class="st1" d="M22.1,305.8L22.1,305.8L22.1,305.8z"/>
			</g>
			<g class="st5">
				<path class="st1" d="M22.1,305.8L22.1,305.8L22.1,305.8z"/>
			</g>
			<g class="st5">
				<path class="st1" d="M22.1,305.8L22.1,305.8L22.1,305.8z"/>
			</g>
			<g class="st5">
				<path class="st1" d="M22.1,305.8L22.1,305.8L22.1,305.8z"/>
			</g>
			<g class="st5">
				<path class="st1" d="M22.1,305.8L22.1,305.8L22.1,305.8z"/>
			</g>
			<g class="st5">
				<path class="st1" d="M22.1,305.8L22.1,305.8L22.1,305.8z"/>
			</g>
			<g class="st5">
				<path class="st1" d="M22.1,305.8L22.1,305.8L22.1,305.8z"/>
			</g>
			<g class="st5">
				<path class="st1" d="M22.1,305.8L22.1,305.8L22.1,305.8z"/>
			</g>
			<g class="st5">
				<path class="st1" d="M22.1,305.8L22.1,305.8L22.1,305.8z"/>
			</g>
			<g class="st5">
				<path class="st1" d="M22.1,305.8L22.1,305.8L22.1,305.8z"/>
			</g>
			<g class="st5">
				<path class="st1" d="M22.1,305.8L22.1,305.8L22.1,305.8z"/>
			</g>
			<g class="st5">
				<path class="st1" d="M22.1,305.8L22.1,305.8L22.1,305.8z"/>
			</g>
			<g class="st5">
				<path class="st1" d="M22.1,305.8L22.1,305.8L22.1,305.8z"/>
			</g>
			<g class="st5">
				<path class="st1" d="M22.1,305.8L22.1,305.8L22.1,305.8z"/>
			</g>
			<g class="st5">
				<path class="st1" d="M22.1,305.8L22.1,305.8L22.1,305.8z"/>
			</g>
			<g class="st5">
				<path class="st1" d="M22.1,305.8L22.1,305.8L22.1,305.8z"/>
			</g>
			<g class="st5">
				<path class="st1" d="M22.1,305.8L22.1,305.8L22.1,305.8z"/>
			</g>
			<g class="st5">
				<path class="st1" d="M22.1,305.8L22.1,305.8L22.1,305.8z"/>
			</g>
			<g class="st5">
				<path class="st1" d="M22.1,305.8L22.1,305.8L22.1,305.8z"/>
			</g>
			<g class="st5">
				<path class="st1" d="M22.1,305.8L22.1,305.8L22.1,305.8z"/>
			</g>
			<g class="st5">
				<path class="st1" d="M22.1,305.8L22.1,305.8L22.1,305.8z"/>
			</g>
			<g class="st5">
				<path class="st1" d="M22.1,305.8L22.1,305.8L22.1,305.8z"/>
			</g>
			<g class="st5">
				<path class="st1" d="M22.1,305.8L22.1,305.8L22.1,305.8z"/>
			</g>
			<g class="st5">
				<path class="st1" d="M22.1,305.8L22.1,305.8L22.1,305.8z"/>
			</g>
			<g class="st5">
				<path class="st1" d="M22.1,305.8L22.1,305.8L22.1,305.8z"/>
			</g>
			<g class="st5">
				<path class="st1" d="M22.1,305.8L22.1,305.8L22.1,305.8z"/>
			</g>
			<g class="st5">
				<path class="st1" d="M22.1,305.8L22.1,305.8L22.1,305.8z"/>
			</g>
			<g class="st5">
				<path class="st1" d="M22.1,305.8L22.1,305.8L22.1,305.8z"/>
			</g>
			<g class="st5">
				<path class="st1" d="M22.1,305.8L22.1,305.8L22.1,305.8z"/>
			</g>
			<g class="st5">
				<path class="st1" d="M22.1,305.8L22.1,305.8L22.1,305.8z"/>
			</g>
			<g class="st5">
				<path class="st1" d="M22.1,305.8L22.1,305.8L22.1,305.8z"/>
			</g>
			<g class="st5">
				<path class="st1" d="M22.1,305.8L22.1,305.8L22.1,305.8z"/>
			</g>
			<g class="st5">
				<path class="st1" d="M22.1,305.8L22.1,305.8L22.1,305.8z"/>
			</g>
			<g class="st5">
				<path class="st1" d="M22.1,305.8L22.1,305.8L22.1,305.8z"/>
			</g>
			<g class="st5">
				<path class="st1" d="M22.1,305.8L22.1,305.8L22.1,305.8z"/>
			</g>
			<g class="st5">
				<path class="st1" d="M22.1,305.8L22.1,305.8L22.1,305.8z"/>
			</g>
			<g class="st5">
				<path class="st1" d="M22.1,305.8L22.1,305.8L22.1,305.8z"/>
			</g>
			<g class="st5">
				<path class="st1" d="M22.1,305.8L22.1,305.8L22.1,305.8z"/>
			</g>
			<g class="st5">
				<path class="st1" d="M22.1,305.8L22.1,305.8L22.1,305.8z"/>
			</g>
			<g class="st5">
				<path class="st1" d="M22.1,305.8L22.1,305.8L22.1,305.8z"/>
			</g>
			<g class="st5">
				<path class="st1" d="M22.1,305.8L22.1,305.8L22.1,305.8z"/>
			</g>
			<g class="st5">
				<path class="st1" d="M22.1,305.8L22.1,305.8L22.1,305.8z"/>
			</g>
			<g class="st5">
				<path class="st1" d="M22.1,305.8L22.1,305.8L22.1,305.8z"/>
			</g>
			<g class="st5">
				<path class="st1" d="M22.1,305.8L22.1,305.8L22.1,305.8z"/>
			</g>
			<g class="st5">
				<path class="st1" d="M22.1,305.8L22.1,305.8L22.1,305.8z"/>
			</g>
			<g class="st5">
				<path class="st1" d="M22.1,305.8L22.1,305.8L22.1,305.8z"/>
			</g>
			<g class="st5">
				<path class="st1" d="M22.1,305.8L22.1,305.8L22.1,305.8z"/>
			</g>
			<g class="st5">
				<path class="st1" d="M22.1,305.8L22.1,305.8L22.1,305.8z"/>
			</g>
			<g class="st5">
				<path class="st1" d="M22.1,305.8L22.1,305.8L22.1,305.8z"/>
			</g>
			<g class="st5">
				<path class="st1" d="M22.1,305.8L22.1,305.8L22.1,305.8z"/>
			</g>
			<g class="st5">
				<path class="st1" d="M22.1,305.8L22.1,305.8L22.1,305.8z"/>
			</g>
			<g class="st5">
				<path class="st1" d="M22.1,305.8L22.1,305.8L22.1,305.8z"/>
			</g>
			<g class="st5">
				<path class="st1" d="M22.1,305.8L22.1,305.8L22.1,305.8z"/>
			</g>
			<g class="st5">
				<path class="st1" d="M22.1,305.8L22.1,305.8L22.1,305.8z"/>
			</g>
			<g class="st5">
				<path class="st1" d="M22.1,305.8L22.1,305.8L22.1,305.8z"/>
			</g>
			<g class="st5">
				<path class="st1" d="M22.1,305.8L22.1,305.8L22.1,305.8z"/>
			</g>
			<g class="st5">
				<path class="st1" d="M22.1,305.8L22.1,305.8L22.1,305.8z"/>
			</g>
			<g class="st5">
				<path class="st1" d="M22.1,305.8L22.1,305.8L22.1,305.8z"/>
			</g>
			<g class="st5">
				<path class="st1" d="M22.1,305.8L22.1,305.8L22.1,305.8z"/>
			</g>
			<g class="st5">
				<path class="st1" d="M22.1,305.8L22.1,305.8L22.1,305.8z"/>
			</g>
			<g class="st5">
				<path class="st1" d="M22.1,305.8L22.1,305.8L22.1,305.8z"/>
			</g>
			<g class="st5">
				<path class="st1" d="M22.1,305.8L22.1,305.8L22.1,305.8z"/>
			</g>
			<g class="st5">
				<path class="st1" d="M22.1,305.8L22.1,305.8L22.1,305.8z"/>
			</g>
			<g class="st5">
				<path class="st1" d="M22.1,305.8L22.1,305.8L22.1,305.8z"/>
			</g>
			<g class="st5">
				<path class="st1" d="M22.1,305.8L22.1,305.8L22.1,305.8z"/>
			</g>
			<g class="st5">
				<path class="st1" d="M22.1,305.8L22.1,305.8L22.1,305.8z"/>
			</g>
			<g class="st5">
				<path class="st1" d="M22.1,305.8L22.1,305.8L22.1,305.8z"/>
			</g>
			<g class="st5">
				<path class="st1" d="M22.1,305.8L22.1,305.8L22.1,305.8z"/>
			</g>
			<g class="st5">
				<path class="st1" d="M22.1,305.8L22.1,305.8L22.1,305.8z"/>
			</g>
			<g class="st5">
				<path class="st1" d="M22.1,305.8L22.1,305.8L22.1,305.8z"/>
			</g>
			<g class="st5">
				<path class="st1" d="M22.1,305.8L22.1,305.8L22.1,305.8z"/>
			</g>
			<g class="st5">
				<path class="st1" d="M22.1,305.8L22.1,305.8L22.1,305.8z"/>
			</g>
			<g class="st5">
				<path class="st1" d="M22.1,305.8L22.1,305.8L22.1,305.8z"/>
			</g>
			<g class="st5">
				<path class="st1" d="M22.1,305.8L22.1,305.8L22.1,305.8z"/>
			</g>
			<g class="st5">
				<path class="st1" d="M22.1,305.8L22.1,305.8L22.1,305.8z"/>
			</g>
			<g class="st5">
				<path class="st1" d="M22.1,305.8L22.1,305.8L22.1,305.8z"/>
			</g>
			<g class="st5">
				<path class="st1" d="M22.1,305.8L22.1,305.8L22.1,305.8z"/>
			</g>
			<g class="st5">
				<path class="st1" d="M22.1,305.8L22.1,305.8L22.1,305.8z"/>
			</g>
			<g class="st5">
				<path class="st1" d="M22.1,305.8L22.1,305.8L22.1,305.8z"/>
			</g>
			<g class="st5">
				<path class="st1" d="M22.1,305.8L22.1,305.8L22.1,305.8z"/>
			</g>
			<g class="st5">
				<path class="st1" d="M22.1,305.8L22.1,305.8L22.1,305.8z"/>
			</g>
			<g class="st5">
				<path class="st1" d="M22.1,305.8L22.1,305.8L22.1,305.8z"/>
			</g>
			<g class="st5">
				<path class="st1" d="M22.1,305.8L22.1,305.8L22.1,305.8z"/>
			</g>
			<g class="st5">
				<path class="st1" d="M22.1,305.8L22.1,305.8L22.1,305.8z"/>
			</g>
			<g class="st5">
				<path class="st1" d="M22.1,305.8L22.1,305.8L22.1,305.8z"/>
			</g>
			<g class="st5">
				<path class="st1" d="M22.1,305.8L22.1,305.8L22.1,305.8z"/>
			</g>
			<g class="st5">
				<path class="st1" d="M22.1,305.8L22.1,305.8L22.1,305.8z"/>
			</g>
			<g class="st5">
				<path class="st1" d="M22.1,305.8L22.1,305.8L22.1,305.8z"/>
			</g>
			<g class="st5">
				<path class="st1" d="M22.1,305.8L22.1,305.8L22.1,305.8z"/>
			</g>
			<g class="st5">
				<path class="st1" d="M22.1,305.8L22.1,305.8L22.1,305.8z"/>
			</g>
			<g class="st5">
				<path class="st1" d="M22.1,305.8L22.1,305.8L22.1,305.8z"/>
			</g>
			<g class="st5">
				<path class="st1" d="M22.1,305.8L22.1,305.8L22.1,305.8z"/>
			</g>
			<g class="st5">
				<path class="st1" d="M22.1,305.8L22.1,305.8L22.1,305.8z"/>
			</g>
			<g class="st5">
				<path class="st1" d="M22.1,305.8L22.1,305.8L22.1,305.8z"/>
			</g>
			<g class="st5">
				<path class="st1" d="M22.1,305.8L22.1,305.8L22.1,305.8z"/>
			</g>
			<g class="st5">
				<path class="st1" d="M22.1,305.8L22.1,305.8L22.1,305.8z"/>
			</g>
			<g class="st5">
				<path class="st1" d="M22.1,305.8L22.1,305.8L22.1,305.8z"/>
			</g>
			<g class="st5">
				<path class="st1" d="M22.1,305.8L22.1,305.8L22.1,305.8z"/>
			</g>
			<g class="st5">
				<path class="st1" d="M22.1,305.8L22.1,305.8L22.1,305.8z"/>
			</g>
			<g class="st5">
				<path class="st1" d="M22.1,305.8L22.1,305.8L22.1,305.8z"/>
			</g>
			<g class="st5">
				<path class="st1" d="M22.1,305.8L22.1,305.8L22.1,305.8z"/>
			</g>
			<g class="st5">
				<path class="st1" d="M22.1,305.8L22.1,305.8L22.1,305.8z"/>
			</g>
			<g class="st5">
				<path class="st1" d="M22.1,305.8L22.1,305.8L22.1,305.8z"/>
			</g>
			<g class="st5">
				<path class="st1" d="M22.1,305.8L22.1,305.8L22.1,305.8z"/>
			</g>
			<g class="st5">
				<path class="st1" d="M22.1,305.8L22.1,305.8L22.1,305.8z"/>
			</g>
			<g class="st5">
				<path class="st1" d="M22.1,305.8L22.1,305.8L22.1,305.8z"/>
			</g>
			<g class="st5">
				<path class="st1" d="M22.1,305.8L22.1,305.8L22.1,305.8z"/>
			</g>
			<g class="st5">
				<path class="st1" d="M22.1,305.8L22.1,305.8L22.1,305.8z"/>
			</g>
			<g class="st5">
				<path class="st1" d="M22.1,305.8L22.1,305.8L22.1,305.8z"/>
			</g>
			<g class="st5">
				<path class="st1" d="M22.1,305.8L22.1,305.8L22.1,305.8z"/>
			</g>
			<g class="st5">
				<path class="st1" d="M22.1,305.8L22.1,305.8L22.1,305.8z"/>
			</g>
			<g class="st5">
				<path class="st1" d="M22.1,305.8L22.1,305.8L22.1,305.8z"/>
			</g>
			<g class="st5">
				<path class="st1" d="M22.1,305.8L22.1,305.8L22.1,305.8z"/>
			</g>
			<g class="st5">
				<path class="st1" d="M22.1,305.8L22.1,305.8L22.1,305.8z"/>
			</g>
			<g class="st5">
				<path class="st1" d="M22.1,305.8L22.1,305.8L22.1,305.8z"/>
			</g>
			<g class="st5">
				<path class="st1" d="M22.1,305.8L22.1,305.8L22.1,305.8z"/>
			</g>
			<g class="st5">
				<path class="st1" d="M22.1,305.8L22.1,305.8L22.1,305.8z"/>
			</g>
			<g class="st5">
				<path class="st1" d="M22.1,305.8L22.1,305.8L22.1,305.8z"/>
			</g>
			<g class="st5">
				<path class="st1" d="M22.1,305.8L22.1,305.8L22.1,305.8z"/>
			</g>
			<g class="st5">
				<path class="st1" d="M22.1,305.8L22.1,305.8L22.1,305.8z"/>
			</g>
			<g class="st5">
				<path class="st1" d="M22.1,305.8L22.1,305.8L22.1,305.8z"/>
			</g>
			<g class="st5">
				<path class="st1" d="M22.1,305.8L22.1,305.8L22.1,305.8z"/>
			</g>
			<g class="st5">
				<path class="st1" d="M22.1,305.8L22.1,305.8L22.1,305.8z"/>
			</g>
			<g class="st5">
				<path class="st1" d="M22.1,305.8L22.1,305.8L22.1,305.8z"/>
			</g>
			<g class="st5">
				<path class="st1" d="M22.1,305.8L22.1,305.8L22.1,305.8z"/>
			</g>
			<g class="st5">
				<path class="st1" d="M22.1,305.8L22.1,305.8L22.1,305.8z"/>
			</g>
			<g class="st5">
				<path class="st1" d="M22.1,305.8L22.1,305.8L22.1,305.8z"/>
			</g>
			<g class="st5">
				<path class="st1" d="M22.1,305.8L22.1,305.8L22.1,305.8z"/>
			</g>
			<g class="st5">
				<path class="st1" d="M22.1,305.8L22.1,305.8L22.1,305.8z"/>
			</g>
			<g class="st5">
				<path class="st1" d="M22.1,305.8L22.1,305.8L22.1,305.8z"/>
			</g>
			<g class="st5">
				<path class="st1" d="M22.1,305.8L22.1,305.8L22.1,305.8z"/>
			</g>
			<g class="st5">
				<path class="st1" d="M22.1,305.8L22.1,305.8L22.1,305.8z"/>
			</g>
			<g class="st5">
				<path class="st1" d="M22.1,305.8L22.1,305.8L22.1,305.8z"/>
			</g>
			<g class="st5">
				<path class="st1" d="M22.1,305.8L22.1,305.8L22.1,305.8z"/>
			</g>
			<g class="st5">
				<path class="st1" d="M22.1,305.8L22.1,305.8L22.1,305.8z"/>
			</g>
			<g class="st5">
				<path class="st1" d="M22.1,305.8L22.1,305.8L22.1,305.8z"/>
			</g>
			<g class="st5">
				<path class="st1" d="M22.1,305.8L22.1,305.8L22.1,305.8z"/>
			</g>
			<g class="st5">
				<path class="st1" d="M22.1,305.8L22.1,305.8L22.1,305.8z"/>
			</g>
			<g class="st5">
				<path class="st1" d="M22.1,305.8L22.1,305.8L22.1,305.8z"/>
			</g>
			<g class="st5">
				<path class="st1" d="M22.1,305.8L22.1,305.8L22.1,305.8z"/>
			</g>
			<g class="st5">
				<path class="st1" d="M22.1,305.8L22.1,305.8L22.1,305.8z"/>
			</g>
			<g class="st5">
				<path class="st1" d="M22.1,305.8L22.1,305.8L22.1,305.8z"/>
			</g>
			<g class="st5">
				<path class="st1" d="M22.1,305.8L22.1,305.8L22.1,305.8z"/>
			</g>
			<g class="st5">
				<path class="st1" d="M22.1,305.8L22.1,305.8L22.1,305.8z"/>
			</g>
			<g class="st5">
				<path class="st1" d="M22.1,305.8L22.1,305.8L22.1,305.8z"/>
			</g>
			<g class="st5">
				<path class="st1" d="M22.1,305.8L22.1,305.8L22.1,305.8z"/>
			</g>
			<g class="st5">
				<path class="st1" d="M22.1,305.8L22.1,305.8L22.1,305.8z"/>
			</g>
			<g class="st5">
				<path class="st1" d="M22.1,305.8L22.1,305.8L22.1,305.8z"/>
			</g>
			<g class="st5">
				<path class="st1" d="M22.1,305.8L22.1,305.8L22.1,305.8z"/>
			</g>
			<g class="st5">
				<path class="st1" d="M22.1,305.8L22.1,305.8L22.1,305.8z"/>
			</g>
			<g class="st5">
				<path class="st1" d="M22.1,305.8L22.1,305.8L22.1,305.8z"/>
			</g>
			<g class="st5">
				<path class="st1" d="M22.1,305.8L22.1,305.8L22.1,305.8z"/>
			</g>
			<g class="st5">
				<path class="st1" d="M22.1,305.8L22.1,305.8L22.1,305.8z"/>
			</g>
			<g class="st5">
				<path class="st1" d="M22.1,305.8L22.1,305.8L22.1,305.8z"/>
			</g>
			<g class="st5">
				<path class="st1" d="M22.1,305.8L22.1,305.8L22.1,305.8z"/>
			</g>
			<g class="st5">
				<path class="st1" d="M22.1,305.8L22.1,305.8L22.1,305.8z"/>
			</g>
			<g class="st5">
				<path class="st1" d="M22.1,305.8L22.1,305.8L22.1,305.8z"/>
			</g>
			<g class="st5">
				<path class="st1" d="M22.1,305.8L22.1,305.8L22.1,305.8z"/>
			</g>
			<g class="st5">
				<path class="st1" d="M22.1,305.8L22.1,305.8L22.1,305.8z"/>
			</g>
			<g class="st5">
				<path class="st1" d="M22.1,305.8L22.1,305.8L22.1,305.8z"/>
			</g>
			<g class="st5">
				<path class="st1" d="M22.1,305.8L22.1,305.8L22.1,305.8z"/>
			</g>
			<g class="st5">
				<path class="st1" d="M22.1,305.8L22.1,305.8L22.1,305.8z"/>
			</g>
			<g class="st5">
				<path class="st1" d="M22.1,305.8L22.1,305.8L22.1,305.8z"/>
			</g>
			<g class="st5">
				<path class="st1" d="M22.1,305.8L22.1,305.8L22.1,305.8z"/>
			</g>
			<g class="st5">
				<path class="st1" d="M22.1,305.8L22.1,305.8L22.1,305.8z"/>
			</g>
			<g class="st5">
				<path class="st1" d="M22.1,305.8L22.1,305.8L22.1,305.8z"/>
			</g>
			<g class="st5">
				<path class="st1" d="M22.1,305.8L22.1,305.8L22.1,305.8z"/>
			</g>
			<g class="st5">
				<path class="st1" d="M22.1,305.8L22.1,305.8L22.1,305.8z"/>
			</g>
			<g class="st5">
				<path class="st1" d="M22.1,305.8L22.1,305.8L22.1,305.8z"/>
			</g>
			<g class="st5">
				<path class="st1" d="M22.1,305.8L22.1,305.8L22.1,305.8z"/>
			</g>
			<g class="st5">
				<path class="st1" d="M22.1,305.8L22.1,305.8L22.1,305.8z"/>
			</g>
			<g class="st5">
				<path class="st1" d="M22.1,305.8L22.1,305.8L22.1,305.8z"/>
			</g>
			<g class="st5">
				<path class="st1" d="M22.1,305.8L22.1,305.8L22.1,305.8z"/>
			</g>
			<g class="st5">
				<path class="st1" d="M22.1,305.8L22.1,305.8L22.1,305.8z"/>
			</g>
			<g class="st5">
				<path class="st1" d="M22.1,305.8L22.1,305.8L22.1,305.8z"/>
			</g>
			<g class="st5">
				<path class="st1" d="M22.1,305.8L22.1,305.8L22.1,305.8z"/>
			</g>
			<g class="st5">
				<path class="st1" d="M22.1,305.8L22.1,305.8L22.1,305.8z"/>
			</g>
			<g class="st5">
				<path class="st1" d="M22.1,305.8L22.1,305.8L22.1,305.8z"/>
			</g>
			<g class="st5">
				<path class="st1" d="M22.1,305.8L22.1,305.8L22.1,305.8z"/>
			</g>
			<g class="st5">
				<path class="st1" d="M22.1,305.8L22.1,305.8L22.1,305.8z"/>
			</g>
			<g class="st5">
				<path class="st1" d="M22.1,305.8L22.1,305.8L22.1,305.8z"/>
			</g>
			<g class="st5">
				<path class="st1" d="M22.1,305.8L22.1,305.8L22.1,305.8z"/>
			</g>
			<g class="st5">
				<path class="st1" d="M22.1,305.8L22.1,305.8L22.1,305.8z"/>
			</g>
			<g class="st5">
				<path class="st1" d="M22.1,305.8L22.1,305.8L22.1,305.8z"/>
			</g>
			<g class="st5">
				<path class="st1" d="M22.1,305.8L22.1,305.8L22.1,305.8z"/>
			</g>
			<g class="st5">
				<path class="st1" d="M22.1,305.8L22.1,305.8L22.1,305.8z"/>
			</g>
			<g class="st5">
				<path class="st1" d="M22.1,305.8L22.1,305.8L22.1,305.8z"/>
			</g>
			<g class="st5">
				<path class="st1" d="M22.1,305.8L22.1,305.8L22.1,305.8z"/>
			</g>
			<g class="st5">
				<path class="st1" d="M22.1,305.8L22.1,305.8L22.1,305.8z"/>
			</g>
			<g class="st5">
				<path class="st1" d="M22.1,305.8L22.1,305.8L22.1,305.8z"/>
			</g>
			<g class="st5">
				<path class="st1" d="M22.1,305.8L22.1,305.8L22.1,305.8z"/>
			</g>
			<g class="st5">
				<path class="st1" d="M22.1,305.8L22.1,305.8L22.1,305.8z"/>
			</g>
			<g class="st5">
				<path class="st1" d="M22.1,305.8L22.1,305.8L22.1,305.8z"/>
			</g>
			<g class="st5">
				<path class="st1" d="M22.1,305.8L22.1,305.8L22.1,305.8z"/>
			</g>
			<g class="st5">
				<path class="st1" d="M22.1,305.8L22.1,305.8L22.1,305.8z"/>
			</g>
			<g class="st5">
				<path class="st1" d="M22.1,305.8L22.1,305.8L22.1,305.8z"/>
			</g>
			<g class="st5">
				<path class="st1" d="M22.1,305.8L22.1,305.8L22.1,305.8z"/>
			</g>
			<g class="st5">
				<path class="st1" d="M22.1,305.8L22.1,305.8L22.1,305.8z"/>
			</g>
			<g class="st5">
				<path class="st1" d="M22.1,305.8L22.1,305.8L22.1,305.8z"/>
			</g>
			<g class="st5">
				<path class="st1" d="M22.1,305.8L22.1,305.8L22.1,305.8z"/>
			</g>
			<g class="st5">
				<path class="st1" d="M22.1,305.8L22.1,305.8L22.1,305.8z"/>
			</g>
			<g class="st5">
				<path class="st1" d="M22.1,305.8L22.1,305.8L22.1,305.8z"/>
			</g>
			<g class="st5">
				<path class="st1" d="M22.1,305.8L22.1,305.8L22.1,305.8z"/>
			</g>
			<g class="st5">
				<path class="st1" d="M22.1,305.8L22.1,305.8L22.1,305.8z"/>
			</g>
			<g class="st5">
				<path class="st1" d="M22.1,305.8L22.1,305.8L22.1,305.8z"/>
			</g>
			<g class="st5">
				<path class="st1" d="M22.1,305.8L22.1,305.8L22.1,305.8z"/>
			</g>
			<g class="st5">
				<path class="st1" d="M22.1,305.8L22.1,305.8L22.1,305.8z"/>
			</g>
			<g class="st5">
				<path class="st1" d="M22.1,305.8L22.1,305.8L22.1,305.8z"/>
			</g>
			<g class="st5">
				<path class="st1" d="M22.1,305.8L22.1,305.8L22.1,305.8z"/>
			</g>
			<g class="st5">
				<path class="st1" d="M22.1,305.8L22.1,305.8L22.1,305.8z"/>
			</g>
			<g class="st5">
				<path class="st1" d="M22.1,305.8L22.1,305.8L22.1,305.8z"/>
			</g>
			<g class="st5">
				<path class="st1" d="M22.1,305.8L22.1,305.8L22.1,305.8z"/>
			</g>
			<g class="st5">
				<path class="st1" d="M22.1,305.8L22.1,305.8L22.1,305.8z"/>
			</g>
		</g>
	</g>
	<g id="path4296_2_">
		<g>
			<defs>
				<path id="SVGID_11_" d="M21.2,299c0-0.2-0.1-0.3-0.1-0.5c0.1,0.5,0.2,1.1,0.3,1.7c0,0,0.6,2.4,0.7,4.6
					C21.9,303.1,21.7,301.3,21.2,299z"/>
			</defs>
			<use xlink:href="#SVGID_11_"  style="overflow:visible;fill:#010101;"/>
			<clipPath id="SVGID_12_">
				<use xlink:href="#SVGID_11_"  style="overflow:visible;"/>
			</clipPath>
			<g class="st6">
				<rect x="21" y="298.5" class="st1" width="1" height="6.3"/>
			</g>
		</g>
	</g>
	<g id="path4311_2_">
		<g>
			<path class="st1" d="M37.3,194.5c0.4-0.7,0.7-1.5,1-2.2c0.3-0.9,0.6-2.1,0.8-3.4c-0.6,2.7-1.4,4.4-1.4,4.4S37.5,193.8,37.3,194.5
				z"/>
		</g>
	</g>
	<g id="path4313_2_">
		<g>
			<path class="st1" d="M39.8,174.3c-0.2,2.7-0.2,6-0.2,9.1l0,0c0.3-3.1,0.3-5.7,0.3-5.7l0,0.1c0,0,0-2.6-0.1-3.1
				C39.8,174.6,39.8,174.5,39.8,174.3z"/>
		</g>
	</g>
	<g id="path4326_2_">
		<g>
			<path class="st1" d="M462.5,493.9"/>
		</g>
	</g>
	<g id="path4338_2_">
		<g>
			<path class="st1" d="M442.6,494.4c0,0,13.5-5.7,20.7-4.8c0,0,3.7,0.4-0.4,4.3c-4.1,4-5.4,7.1,2.5,4.6c0,0,0.6-0.2,1.5-0.5
				c-3.1,0.9-4.5,0.9-4,0.2c0.8-1.2,2.8-2.8,2.8-2.8s2.4-2.5,2.4-4.9c0,0,0.8-3.6-9.8-1.4C452.1,490.3,446.3,492.7,442.6,494.4
				C442.5,494.4,442.5,494.4,442.6,494.4L442.6,494.4z"/>
		</g>
	</g>
	<g id="path4344_2_">
		<g>
			<path class="st1" d="M475.2,494.9c8.8-3.2,24-11.3,30.6-15.2C499.1,483.6,483.9,491.3,475.2,494.9z"/>
		</g>
	</g>
	<g id="path4436_2_">
		<g>
			<path class="st1" d="M291.9,554.1L291.9,554.1C291.9,554.1,291.9,554.1,291.9,554.1z"/>
		</g>
	</g>
	<g id="path4438_2_">
		<g>
			<path class="st1" d="M291.1,554.1c0,0-0.1,0-0.1,0C291,554.1,291.1,554.1,291.1,554.1z"/>
		</g>
	</g>
	<g id="path4440_2_">
		<g>
			<path class="st1" d="M291.5,554.1c-0.1,0-0.1,0-0.1,0C291.4,554.1,291.4,554.1,291.5,554.1z"/>
		</g>
	</g>
	<g id="path4442_2_">
		<g>
			<path class="st1" d="M290.7,554.1c0,0-0.1,0-0.1,0C290.7,554.1,290.7,554.1,290.7,554.1z"/>
		</g>
	</g>
	<g id="path4444_2_">
		<g>
			<path class="st1" d="M290.3,554.2c0,0-0.1,0-0.1,0C290.2,554.2,290.3,554.2,290.3,554.2z"/>
		</g>
	</g>
	<g id="path4458_2_">
		<g>
			<path class="st1" d="M169.2,529.6c-0.1-0.1-0.2-0.1-0.4-0.2C169,529.6,169.1,529.6,169.2,529.6z"/>
		</g>
	</g>
	<g id="path4462_2_">
		<g>
			<path class="st1" d="M277.6,547.1c-0.1,0-0.3,0-0.5,0C277.3,547.1,277.5,547.1,277.6,547.1z"/>
		</g>
	</g>
	<g id="path4464_2_">
		<g>
			<path class="st1" d="M166.9,528.9c0.1,0,0.2,0.1,0.4,0.1C167.1,528.9,167,528.9,166.9,528.9z"/>
		</g>
	</g>
	<g id="path4466_2_">
		<g>
			<path class="st1" d="M166.2,528.7c0.3,0.1,0.5,0.1,0.7,0.2C166.6,528.8,166.4,528.7,166.2,528.7z"/>
		</g>
	</g>
	<g id="path4468_2_">
		<g>
			<path class="st1" d="M168,529.2c-0.3-0.1-0.5-0.1-0.8-0.3C167.5,529.1,167.8,529.2,168,529.2z"/>
		</g>
	</g>
	<g id="path4472_2_">
		<g>
			<path class="st1" d="M169.2,529.6c0.2,0.1,0.5,0.1,0.7,0.3C169.7,529.8,169.5,529.7,169.2,529.6z"/>
		</g>
	</g>
	<g id="path4478_2_">
		<g>
			<path class="st1" d="M168.8,529.5c-0.1-0.1-0.3-0.1-0.4-0.1C168.6,529.4,168.7,529.5,168.8,529.5z"/>
		</g>
	</g>
	<g id="path4482_2_">
		<g>
			<path class="st1" d="M280.7,547.4c-0.1,0-0.2,0-0.4,0C280.5,547.4,280.6,547.4,280.7,547.4z"/>
		</g>
	</g>
	<g id="path4486_2_">
		<g>
			<path class="st1" d="M281.2,547.5c-0.1,0-0.2,0-0.3-0.1C281,547.5,281,547.5,281.2,547.5z"/>
		</g>
	</g>
	<g id="path4488_2_">
		<g>
			<path class="st1" d="M281.6,547.6c-0.1,0-0.2-0.1-0.3-0.1C281.4,547.5,281.5,547.6,281.6,547.6z"/>
		</g>
	</g>
	<g id="path4490_2_">
		<g>
			<path class="st1" d="M279.1,547.2c-0.2,0-0.4-0.1-0.6-0.1C278.7,547.2,278.9,547.2,279.1,547.2z"/>
		</g>
	</g>
	<g id="path4492_2_">
		<g>
			<path class="st1" d="M280.2,547.3c-0.1,0-0.3,0-0.4-0.1C279.9,547.3,280,547.3,280.2,547.3z"/>
		</g>
	</g>
	<g id="path4494_2_">
		<g>
			<path class="st1" d="M279.6,547.3c-0.2,0-0.4,0-0.5-0.1C279.3,547.2,279.5,547.2,279.6,547.3z"/>
		</g>
	</g>
	<g id="path4496_2_">
		<g>
			<path class="st1" d="M278.3,547.1c-0.1,0-0.3,0-0.5-0.1C278,547.1,278.2,547.1,278.3,547.1z"/>
		</g>
	</g>
	<g id="path4498_2_">
		<g>
			<path class="st1" d="M168.4,529.4c-0.1,0-0.3-0.1-0.4-0.1C168.2,529.3,168.3,529.3,168.4,529.4z"/>
		</g>
	</g>
	<g id="path4500_2_">
		<g>
			<path class="st1" d="M287,553.8C287,553.8,287,553.8,287,553.8C287,553.8,287,553.8,287,553.8z"/>
		</g>
	</g>
	<g id="path4502_2_">
		<g>
			<path class="st1" d="M286.8,553.8C286.9,553.8,286.9,553.8,286.8,553.8L286.8,553.8z"/>
		</g>
	</g>
	<g id="path4504_2_">
		<g>
			<path class="st1" d="M287.1,553.9L287.1,553.9L287.1,553.9z"/>
		</g>
	</g>
	<g id="path4506_2_">
		<g>
			<path class="st1" d="M287.4,553.9C287.4,553.9,287.4,554,287.4,553.9C287.4,554,287.4,553.9,287.4,553.9z"/>
		</g>
	</g>
	<g id="path4508_2_">
		<g>
			<path class="st1" d="M287.2,553.9C287.3,553.9,287.3,553.9,287.2,553.9L287.2,553.9z"/>
		</g>
	</g>
	<g id="path4510_2_">
		<g>
			<path class="st1" d="M286.6,553.7L286.6,553.7L286.6,553.7z"/>
		</g>
	</g>
	<g id="path4512_2_">
		<g>
			<path class="st1" d="M282.1,547.7c-0.1,0-0.2-0.1-0.3-0.1C281.9,547.6,281.9,547.7,282.1,547.7z"/>
		</g>
	</g>
	<g id="path4514_2_">
		<g>
			<path class="st1" d="M283.1,547.9c-0.1,0-0.1-0.1-0.2-0.1C283,547.9,283.1,547.9,283.1,547.9z"/>
		</g>
	</g>
	<g id="path4516_2_">
		<g>
			<path class="st1" d="M297,553.7c-0.1,0-0.1,0-0.2,0C296.9,553.7,297,553.7,297,553.7z"/>
		</g>
	</g>
	<g id="path4518_2_">
		<g>
			<path class="st1" d="M282.5,547.8c-0.1,0-0.2-0.1-0.4-0.1C282.3,547.7,282.4,547.7,282.5,547.8z"/>
		</g>
	</g>
	<g id="path4520_2_">
		<g>
			<path class="st1" d="M289.2,554.1C289.2,554.1,289.2,554.1,289.2,554.1C289.3,554.1,289.2,554.1,289.2,554.1z"/>
		</g>
	</g>
	<g id="path4522_2_">
		<g>
			<path class="st1" d="M289.6,554.1c0,0,0.1,0,0.1,0C289.6,554.1,289.6,554.1,289.6,554.1z"/>
		</g>
	</g>
	<g id="path4524_2_">
		<g>
			<path class="st1" d="M273.7,547c0.3,0,0.6,0,0.9,0C274.3,547,274,547,273.7,547z"/>
		</g>
	</g>
	<g id="path4526_2_">
		<g>
			<path class="st1" d="M288.9,554.1C288.9,554.1,289,554.1,288.9,554.1C289,554.1,288.9,554.1,288.9,554.1z"/>
		</g>
	</g>
	<g id="path4528_2_">
		<g>
			<path class="st1" d="M283.2,547.9c0,0,1,0.2,0.4,2.1c-0.6,2,0.4,2.7,2.9,3.6l0.1,0.1l0,0c-0.5-0.3-0.5-0.5-0.5-0.5
				s-0.1-0.5,0.5-1.3c0.5-0.8,0.1-2.2-1.8-3.2C284.8,548.6,284.4,548.3,283.2,547.9L283.2,547.9z"/>
		</g>
	</g>
	<g id="path4530_2_">
		<g>
			<path class="st1" d="M289.9,554.1c0.1,0,0.1,0,0.1,0C290,554.1,289.9,554.1,289.9,554.1z"/>
		</g>
	</g>
	<g id="path4532_2_">
		<g>
			<path class="st1" d="M287.6,554L287.6,554L287.6,554z"/>
		</g>
	</g>
	<g id="path4534_2_">
		<g>
			<path class="st1" d="M288.7,554.1C288.7,554.1,288.7,554.1,288.7,554.1C288.7,554.1,288.7,554.1,288.7,554.1z"/>
		</g>
	</g>
	<g id="path4536_2_">
		<g>
			<path class="st1" d="M287.8,554L287.8,554L287.8,554z"/>
		</g>
	</g>
	<g id="path4538_2_">
		<g>
			<path class="st1" d="M288,554C288,554,288,554,288,554L288,554z"/>
		</g>
	</g>
	<g id="path4540_2_">
		<g>
			<path class="st1" d="M288.2,554.1L288.2,554.1C288.2,554.1,288.2,554.1,288.2,554.1z"/>
		</g>
	</g>
	<g id="path4542_2_">
		<g>
			<path class="st1" d="M282.8,547.8c-0.1,0-0.2,0-0.3-0.1C282.6,547.8,282.8,547.8,282.8,547.8z"/>
		</g>
	</g>
	<g id="path4544_2_">
		<g>
			<path class="st1" d="M173.4,531.2c0,0-0.1-0.1-0.1-0.1C173.3,531.1,173.4,531.1,173.4,531.2z"/>
		</g>
	</g>
	<g id="path4546_2_">
		<g>
			<path class="st1" d="M173.6,531.2c0,0-0.1-0.1-0.1-0.1C173.5,531.2,173.5,531.2,173.6,531.2z"/>
		</g>
	</g>
	<g id="path4548_2_">
		<g>
			<path class="st1" d="M173,531c-0.1,0-0.1,0-0.2-0.1C172.9,531,172.9,531,173,531z"/>
		</g>
	</g>
	<g id="path4550_2_">
		<g>
			<path class="st1" d="M276.4,547c0.2,0,0.3,0.1,0.5,0.1C276.7,547,276.6,547,276.4,547z"/>
		</g>
	</g>
	<g id="path4552_2_">
		<g>
			<path class="st1" d="M173.7,531.3c0,0-0.1,0-0.1-0.1C173.6,531.2,173.7,531.3,173.7,531.3z"/>
		</g>
	</g>
	<g id="path4554_2_">
		<g>
			<path class="st1" d="M165.1,528.4c0.2,0.1,0.5,0.1,0.7,0.2C165.5,528.5,165.3,528.4,165.1,528.4z"/>
		</g>
	</g>
	<g id="path4556_2_">
		<g>
			<path class="st1" d="M165.8,528.5c0.1,0,0.2,0.1,0.4,0.1C166,528.6,165.9,528.6,165.8,528.5z"/>
		</g>
	</g>
	<g id="path4558_2_">
		<g>
			<path class="st1" d="M173.8,531.3C173.8,531.3,173.8,531.3,173.8,531.3C173.8,531.3,173.8,531.3,173.8,531.3z"/>
		</g>
	</g>
	<g id="path4560_2_">
		<g>
			<path class="st1" d="M172.8,530.9c-0.1-0.1-0.2-0.1-0.2-0.1C172.6,530.9,172.7,530.9,172.8,530.9z"/>
		</g>
	</g>
	<g id="path4562_2_">
		<g>
			<path class="st1" d="M167,531.1c-0.1-0.1-0.1-0.1-0.2-0.2c-1.6-1.2-2.1-2.6-2.1-2.6l0.1-0.1c0.1,0.1,0.2,0.1,0.4,0.1
				c-1.8-0.5-3.1-0.6-2.9-0.1c0.1,0.4,0.8,1,1.7,1.5c1.1,0.6,2.1,1.2,3.2,1.7L167,531.1L167,531.1z"/>
		</g>
	</g>
	<g id="path4564_2_">
		<g>
			<path class="st1" d="M173.2,531.1c-0.1,0-0.1,0-0.2-0.1C173.1,531.1,173.2,531.1,173.2,531.1z"/>
		</g>
	</g>
	<g id="path4566_2_">
		<g>
			<path class="st1" d="M172.5,530.8c-0.1,0-0.2-0.1-0.3-0.1C172.3,530.8,172.5,530.8,172.5,530.8z"/>
		</g>
	</g>
	<g id="path4568_2_">
		<g>
			<path class="st1" d="M174,531.4c0,0,0,0-0.1-0.1C173.9,531.4,174,531.4,174,531.4z"/>
		</g>
	</g>
	<g id="path4570_2_">
		<g>
			<path class="st1" d="M170.3,530c-0.1-0.1-0.2-0.1-0.3-0.1C170.1,529.9,170.2,530,170.3,530z"/>
		</g>
	</g>
	<g id="path4572_2_">
		<g>
			<path class="st1" d="M275.7,547c0.2,0,0.3,0,0.5,0C276,547,275.8,547,275.7,547z"/>
		</g>
	</g>
	<g id="path4574_2_">
		<g>
			<path class="st1" d="M274.8,547c0.2,0,0.4,0,0.6,0C275.2,547,275,547,274.8,547z"/>
		</g>
	</g>
	<g id="path4576_2_">
		<g>
			<path class="st1" d="M171,530.3c-0.2-0.1-0.4-0.1-0.7-0.3C170.6,530.1,170.8,530.2,171,530.3z"/>
		</g>
	</g>
	<g id="path4578_2_">
		<g>
			<path class="st1" d="M171.9,530.6c-0.1,0-0.1-0.1-0.2-0.1C171.8,530.6,171.9,530.6,171.9,530.6z"/>
		</g>
	</g>
	<g id="path4580_2_">
		<g>
			<path class="st1" d="M171.3,530.4c-0.1,0-0.2-0.1-0.3-0.1C171.1,530.3,171.2,530.4,171.3,530.4z"/>
		</g>
	</g>
	<g id="path4582_2_">
		<g>
			<path class="st1" d="M172.3,530.7c-0.1,0-0.2-0.1-0.3-0.1C172.1,530.7,172.2,530.7,172.3,530.7z"/>
		</g>
	</g>
	<g id="path4584_2_">
		<g>
			<path class="st1" d="M171.7,530.5c-0.1-0.1-0.2-0.1-0.3-0.1C171.5,530.4,171.6,530.5,171.7,530.5z"/>
		</g>
	</g>
	<g id="path4586_2_">
		<g>
			<path class="st1" d="M424.8,513.7L424.8,513.7L424.8,513.7z"/>
		</g>
	</g>
	<g id="path4588_2_">
		<g>
			<path class="st1" d="M429.4,511.9C429.4,511.9,429.4,511.9,429.4,511.9C429.4,511.9,429.4,511.9,429.4,511.9z"/>
		</g>
	</g>
	<g id="path4590_2_">
		<g>
			<path class="st1" d="M429.2,511.9C429.2,512,429.2,512,429.2,511.9C429.2,512,429.2,512,429.2,511.9z"/>
		</g>
	</g>
	<g id="path4592_2_">
		<g>
			<path class="st1" d="M429.1,512.1C429,512.1,429,512.1,429.1,512.1C429,512.1,429,512.1,429.1,512.1z"/>
		</g>
	</g>
	<g id="path4594_2_">
		<g>
			<path class="st1" d="M428.9,512.1L428.9,512.1L428.9,512.1z"/>
		</g>
	</g>
	<g id="path4596_2_">
		<g>
			<path class="st1" d="M427.2,512.9C427.2,512.9,427.2,512.9,427.2,512.9C427.2,512.9,427.2,512.9,427.2,512.9z"/>
		</g>
	</g>
	<g id="path4598_2_">
		<g>
			<path class="st1" d="M427,512.9C427,512.9,427,512.9,427,512.9C427,512.9,427,512.9,427,512.9z"/>
		</g>
	</g>
	<g id="path4600_2_">
		<g>
			<path class="st1" d="M428.6,512.2L428.6,512.2L428.6,512.2z"/>
		</g>
	</g>
	<g id="path4602_2_">
		<g>
			<path class="st1" d="M426.6,513.1C426.6,513.1,426.6,513.1,426.6,513.1C426.6,513.1,426.6,513.1,426.6,513.1z"/>
		</g>
	</g>
	<g id="path4604_2_">
		<g>
			<path class="st1" d="M426.4,513.2C426.4,513.2,426.4,513.1,426.4,513.2C426.4,513.1,426.4,513.2,426.4,513.2z"/>
		</g>
	</g>
	<g id="path4606_2_">
		<g>
			<path class="st1" d="M426.8,513C426.8,513,426.8,513,426.8,513C426.8,513,426.8,513,426.8,513z"/>
		</g>
	</g>
	<g id="path4608_2_">
		<g>
			<path class="st1" d="M296.4,553.7c-0.1,0-0.1,0-0.2,0C296.3,553.8,296.4,553.7,296.4,553.7z"/>
		</g>
	</g>
	<g id="path4610_2_">
		<g>
			<path class="st1" d="M426.2,513.2C426.2,513.2,426.2,513.2,426.2,513.2C426.2,513.2,426.2,513.2,426.2,513.2z"/>
		</g>
	</g>
	<g id="path4612_2_">
		<g>
			<path class="st1" d="M429.4,501.6c0.1-0.1,0.1-0.1,0.3-0.2C429.5,501.5,429.4,501.6,429.4,501.6z"/>
		</g>
	</g>
	<g id="path4616_2_">
		<g>
			<path class="st1" d="M430.1,501.1c0.1-0.1,0.1-0.1,0.2-0.1C430.2,501,430.2,501.1,430.1,501.1z"/>
		</g>
	</g>
	<g id="path4618_2_">
		<g>
			<path class="st1" d="M430.1,510.1c1.2,0.4,0.6,1-0.5,1.7l0.6-0.2c0,0,4.8-2.7,2.8-3.9c-2.1-1.2-6.8-1.7-3.7-5.9l0.1-0.1
				c-2.7,2.1-4.6,4.4-3,6.2C426.3,508,427,509.1,430.1,510.1z"/>
		</g>
	</g>
	<g id="path4620_2_">
		<g>
			<path class="st1" d="M428.1,512.5C428.1,512.5,428,512.5,428.1,512.5C428,512.5,428,512.5,428.1,512.5z"/>
		</g>
	</g>
	<g id="path4622_2_">
		<g>
			<path class="st1" d="M428.5,512.3L428.5,512.3C428.4,512.4,428.4,512.3,428.5,512.3z"/>
		</g>
	</g>
	<g id="path4624_2_">
		<g>
			<path class="st1" d="M428.3,512.4C428.3,512.4,428.2,512.4,428.3,512.4C428.2,512.4,428.3,512.4,428.3,512.4z"/>
		</g>
	</g>
	<g id="path4626_2_">
		<g>
			<path class="st1" d="M427.6,512.7C427.6,512.7,427.6,512.7,427.6,512.7C427.6,512.7,427.6,512.7,427.6,512.7z"/>
		</g>
	</g>
	<g id="path4628_2_">
		<g>
			<path class="st1" d="M427.4,512.8C427.4,512.8,427.4,512.8,427.4,512.8C427.4,512.8,427.4,512.8,427.4,512.8z"/>
		</g>
	</g>
	<g id="path4630_2_">
		<g>
			<path class="st1" d="M429.7,501.4c0.1-0.1,0.2-0.1,0.2-0.2C429.9,501.3,429.8,501.3,429.7,501.4z"/>
		</g>
	</g>
	<g id="path4632_2_">
		<g>
			<path class="st1" d="M292.4,554.1c-0.1,0-0.1,0-0.1,0C292.3,554.1,292.4,554.1,292.4,554.1z"/>
		</g>
	</g>
	<g id="path4634_2_">
		<g>
			<path class="st1" d="M293.4,554.1c0,0-0.1,0-0.1,0C293.3,554.1,293.3,554.1,293.4,554.1z"/>
		</g>
	</g>
	<g id="path4636_2_">
		<g>
			<path class="st1" d="M292.9,554.1c0,0-0.1,0-0.1,0C292.8,554.1,292.9,554.1,292.9,554.1z"/>
		</g>
	</g>
	<g id="path4638_2_">
		<g>
			<path class="st1" d="M303,547.3c0,0,2.2,1.4,10.2,1.7c0,0,2.7,0,2.9,0.2c0.1,0.2,0.2,0.3-0.4,0.6l0,0c0.4-0.1,4.8-1.6,2.9-2.4
				c-0.2-0.1-0.4-0.1-0.5-0.2c0,0-0.1,0-0.1,0l0,0c-0.1,0-0.1,0-0.1,0c-0.1,0-0.1,0-0.1,0s-0.1,0-0.1,0c0,0-0.1,0-0.1,0
				c0,0-0.1,0-0.1,0c0,0-0.1,0-0.1-0.1c0,0-0.1,0-0.1,0c0,0-0.1,0-0.1,0c0,0-0.1,0-0.1,0c0,0-0.1,0-0.1,0s-0.1,0-0.1,0
				c-0.1,0-0.1,0-0.1,0h0c-0.1,0-0.2,0-0.2,0c0,0,0,0,0,0c0,0-0.1,0-0.1,0c0,0-0.1,0-0.1,0s-0.1,0-0.1,0s0,0-0.1,0s-0.1,0-0.1,0
				c0,0-0.1,0-0.1,0c0,0-0.1,0-0.1,0c0,0,0,0-0.1,0c0,0-0.1,0-0.1,0l0,0c-0.3,0-0.5,0-0.8-0.1c0,0,0,0,0,0c-0.1,0-0.1,0-0.1,0
				c0,0-0.1,0-0.1,0c-0.1,0-0.1,0-0.1,0c0,0-0.1,0-0.1,0s-0.1,0-0.1,0c0,0-0.1,0-0.1,0s-0.1,0-0.1,0c-0.1,0-0.1,0-0.2,0
				c-0.1,0-0.1,0-0.1,0s-0.1,0-0.2,0c-0.1,0-0.1,0-0.1,0c0,0-0.1,0-0.1,0c-0.1,0-0.1,0-0.1,0s-0.1,0-0.2,0c0,0-0.1,0-0.1,0
				c0,0-0.1,0-0.2,0c0,0-0.1,0-0.1,0c-0.1,0-0.1,0-0.2,0c-0.1,0-0.1,0-0.2,0c-0.1,0-0.1,0-0.2-0.1c-0.1,0-0.1,0-0.1,0
				c-0.1,0-0.2,0-0.4,0c-0.9-0.1-1.7-0.2-2.3-0.4l-1.2-0.1c0,0-2.9-0.1-4-1.9c-0.7-1.2,2.8-1.9,2.8-1.9s5.8-1.2,11.7-2
				c0,0-15.5,1.8-16.9,3.8C300.5,546.2,303,547.3,303,547.3L303,547.3z"/>
		</g>
	</g>
	<g id="path4640_2_">
		<g>
			<path class="st1" d="M424.6,513.8L424.6,513.8L424.6,513.8z"/>
		</g>
	</g>
	<g id="path4642_2_">
		<g>
			<path class="st1" d="M424.6,513.8L424.6,513.8L424.6,513.8z"/>
		</g>
	</g>
	<g id="path4644_2_">
		<g>
			<path class="st1" d="M295.8,553.8c0,0-0.1,0-0.1,0C295.7,553.8,295.7,553.8,295.8,553.8z"/>
		</g>
	</g>
	<g id="path4646_2_">
		<g>
			<path class="st1" d="M295.1,553.9c-0.1,0-0.1,0-0.2,0C295,553.9,295,553.9,295.1,553.9z"/>
		</g>
	</g>
	<g id="path4648_2_">
		<g>
			<path class="st1" d="M294.5,554c-0.1,0-0.1,0-0.2,0C294.4,554,294.5,554,294.5,554z"/>
		</g>
	</g>
	<g id="path4650_2_">
		<g>
			<path class="st1" d="M294,554c-0.1,0-0.1,0-0.2,0C293.9,554,293.9,554,294,554z"/>
		</g>
	</g>
	<g id="path4652_2_">
		<g>
			<path class="st1" d="M425.5,513.5C425.5,513.5,425.5,513.5,425.5,513.5C425.5,513.4,425.5,513.4,425.5,513.5z"/>
		</g>
	</g>
	<g id="path4654_2_">
		<g>
			<path class="st1" d="M425.3,513.5L425.3,513.5L425.3,513.5z"/>
		</g>
	</g>
	<g id="path4656_2_">
		<g>
			<path class="st1" d="M425.8,513.4L425.8,513.4L425.8,513.4z"/>
		</g>
	</g>
	<g id="path4658_2_">
		<g>
			<path class="st1" d="M425,513.6C425.1,513.6,425.1,513.6,425,513.6C425.1,513.6,425.1,513.6,425,513.6z"/>
		</g>
	</g>
	<g id="path4660_2_">
		<g>
			<path class="st1" d="M425.6,513.4C425.6,513.4,425.7,513.4,425.6,513.4C425.7,513.4,425.6,513.4,425.6,513.4z"/>
		</g>
	</g>
	<g id="path4662_2_">
		<g>
			<path class="st1" d="M424.6,513.7C424.6,513.7,424.6,513.7,424.6,513.7C424.6,513.7,424.6,513.7,424.6,513.7z"/>
		</g>
	</g>
	<g id="path4664_2_">
		<g>
			<path class="st1" d="M424.6,513.7L424.6,513.7C424.7,513.7,424.7,513.7,424.6,513.7z"/>
		</g>
	</g>
	<g id="path4668_2_">
		<g>
			<path class="st1" d="M424.9,513.6C424.9,513.6,424.9,513.6,424.9,513.6S424.9,513.6,424.9,513.6z"/>
		</g>
	</g>
	<g id="path4670_2_">
		<g>
			<path class="st1" d="M424.8,513.7L424.8,513.7L424.8,513.7z"/>
		</g>
	</g>
	<g id="path3945_2_">
		<g>
			<path class="st1" d="M500.4,482.8l2.7,1c-0.2,0.4-0.4,0.7-0.6,1.1c-5.3,9.6-5.7,11.7-8.3,13.7c-2.6,2-3.6,3.3-8.8,4.2
				c-5.2,0.9-10.8,7.1-10.8,7.1s-5.3,5.1-2.9,5.3c2.4,0.2,7.2-3.7,7.2-3.7s3-2.2,3.8-1.6c0.8,0.6-3.3,4.6-3.3,4.6s-7.1,7.2-15.1,12
				l-2.5,1.3c0,0,11.4-8.5,16.8-14.6c0,0,1.1-1.6-1.1,0.4s-8.1,5-10.6,5c-2.5,0,0.1-3.5,0.1-3.5s3.6-4.7,11-10.7
				c7.4-6,13.6-5.6,13.6-5.6s1.4,0.3,1.6-1.7c0.2-1.9,1.9-5.3,1.9-5.3s2.8-6.3,10.2-16.7c7.4-10.4,10.8-13.4,10.8-13.4
				s9.6-9.9,14.7-19.8c0,0,3.5-6.1-2.2-1.6c-5.8,4.6-13.5,10.4-20.9,12.2c-7.5,1.9-8.2-5.1-8.2-5.1s-1.6-11.5,6.4-20.3
				c7.2-8.1,15.2-7.8,22.4-8.6c7.2-0.9,13.5-9.6,13.5-9.6s5-5.6,7.8-23.1c1.3-8.1,0.4-13.6-0.9-17.2l0.1-3.9l-2.2-0.1
				c-0.5-0.7-0.8-1-0.8-1s-1.8-1.8-3.7-3.2c-1.9-1.4-4.2-4-6.5-8.9c0,0-6.2-12.8-4.8-31.4c1.4-18.5,16.8-16.8,16.8-16.8
				s9,0.9,10.7-1.8c1.7-2.7,3.4-6,4-13.5c0.6-7.5-2.4-14.7-2.4-14.7s-1.2-3.7-6.4-4.3c-5.2-0.6-6.4,1-6.4,1s-1.6,0.4-4.4,6.6
				c-2.9,6.2-4.6,9.1-9.8,10.4c-5.2,1.3-12.3,0.6-15.5-6c-3.1-6.5-10.7-22.5-14.3-35.1l0.5-4.5l-2-2.9c-0.4-2.4-0.7-5.2-0.8-7.5
				c-0.2-6.1-2-12.8-3.9-19.5c-2-6.7-8.9-18.1-10.2-20.7c-2-4.1-3.8-5.8-6.2-5.4c-2.4,0.3-2.1,0.3-3.1,0.3s-1.6,1.3-1.9,2.6
				c-0.3,1.3-2.3,8-6.7,11c-4.6,3.1-7,4.5-14.9,5.2c0,0-9.1,0.6-16.2-12.8c-7.2-13.4-5.3-21.9-4.7-25c0.6-3.1,3.3-7.6,7.5-8.4
				c4.2-0.9,6.8-1.1,6.8-1.1s6.8-0.1,9.7-0.4c3.4-0.5,1.7-6.1,1.7-6.1s-2.2-14.5-14.3-26.3l-0.6-3l-4.6-2.3
				c-11.5-12.4-26.5-32.6-26.5-32.6s-6.7-6.4-1.1-15.2c0,0,2.7-5.9,10.6-4.8c2.6,0.5,2.8,0.8,5,1.2c2.9,0.6,6.1,1.4,9-2.4
				c0,0,2.7-4.8-1.7-11c-4.3-6.2-5.6-10.6-10.9-10.3c0,0-2.4-0.3-4.8,2.3c-2.4,2.7-8.6,4.4-12.2,4.7c-4.1,0.4-13.7-3.2-19.2-12.7
				c-3.1-5.3-4.6-8.2-5.3-9.7l1.4-2.1l4.4,0.5c1.1,2.2,3.3,6.4,6,11c3.4,6,6.4,6.8,8.3,7.7c2,0.9,6.4-0.4,8.7-1.7
				c2.4-1.3,4.7-4.2,8.7-4.5c4-0.3,9.9,0.5,14,4.8c4.2,4.4,9.4,13.5,8.9,17.9c-0.5,4.3-0.7,8.5-6.3,10.3c-5.6,1.8-7.9,0.3-11.5-0.5
				c-3.6-0.8-5.3-0.4-6.7,1.3c-1.5,1.7-3.1,5.4-2.5,7.1c0.6,1.7,1.1,2.8,4.6,7.7c3.4,4.9,21.2,25.9,24.5,29.1l-0.9,4.3l5.9,1.1
				c3.8,4.4,8.3,10.2,10.3,13.8c3,5.5,4.6,14.2,4.7,18.3c0.2,4.1-1.8,5.9-1.8,5.9s-1.9,3.2-12.2,3.2c-9.2,0-9.8,1.8-9.8,1.8
				s-2.9,2.8-2.3,9.8c0.7,7,3.8,14.3,9.5,20.5c4.8,5.2,13.7,0,16.7-1.8c3.1-1.8,5-7.7,5-7.7s0.6-7.4,8.7-7.4c8.4,0,12,8,12,8
				s5.8,7.9,11.8,25.1c2.9,8.5,3.5,13.9,3.5,13.9l0.8,10.1l-3,5.5l4.5,1.9c0.8,3.3,2.1,7.6,4.2,12.4c0,0,6.1,14.5,8.8,20
				c2.7,5.5,5.5,4.7,7.7,4.9c0,0,5.2,0.7,7-1.7c1.9-2.4,3.7-6.7,3.7-6.7s4-11,13-10.1c9,1,11.2,6.6,12.8,13.2
				c1.6,6.5,1.9,19.7-3,27.7c-4.8,8-10.3,6.9-10.3,6.9s-11-1.1-13.6,1.3c-2.5,2.3-3.8,4.4-4.1,9.8c-0.4,5.4,0.2,14.2,4.6,24.8
				c3.8,9.3,7,8.3,8.7,10.5c1.7,2.3,7.3,7.3,6.7,19.9c-0.5,12.6-4.8,25.3-9.6,33.1c-4.8,7.8-12.2,12.5-12.2,12.5s-2.1,1.3-6.5,1.9
				c-4.5,0.6-10.9,0.5-15.5,3.1c-4.6,2.6-6,9.1-6.5,12c-0.4,2.9-0.7,9.4,5.6,8.6c6.3-0.7,15.7-8.5,15.7-8.5s9.1-6.7,10.2-4.6
				c1.2,2.2-3.9,10.9-3.9,10.9s-6.3,9.5-11.5,15.3c-4.3,4.8-10,11.4-14.8,18.9L500.4,482.8z"/>
		</g>
	</g>
	<g id="g3947_2_">
		<g id="path3954_2_">
			<g>
				<path class="st1" d="M141.1,138.3c-0.1,0.1-0.1,0.1-0.1,0.2C141,138.4,141.1,138.3,141.1,138.3z"/>
			</g>
		</g>
		<g id="path3961_2_">
			<g>
				<path class="st1" d="M230.9,546.1l1,0c-1-0.9-2.2-1.7-3.8-2.5c-4.3-2.3-22.7-14.5-28.4-18.3c-5.7-3.9-15.7-10.4-20.1-9
					c-3.4,1.1-2.9,2.4-4.9,3.4c-2,0.9-4.2,0.3-9.1-2.4c-5-2.6-8.7-4.4-18.4-13.6c-7.6-7.3,9.7-0.7,9.7-0.7s3.8,1.6,2.1-2.3
					c-1.7-4-10.2-14.2-18.2-22.5c-6.5-6.7-10.2-11.4-14.8-18.1l-3.5-4l0.1-1c-0.1-0.1-0.2-0.3-0.3-0.5c0,0-11.4-20.6-10.2-28.1
					c0,0,0.4-5,7.6-7.2c5-1.5,4.3,3.3,19,5.9c0,0,12.6,3.4,15.9-5.8c3.3-9.1-3.5-20.7-3.5-20.7s-8.8-16.2-19.8-16.8
					c-5.8-0.3-4.2,3.6-12.9,5.6c0,0-11.6,1.1-15.4-5.9c-4.5-8.4-6.3-18.1-6.2-24.5c0.1-6.1,0.3-6.6,0.7-8.3c0.3-1.3,1.2-3.6,1.6-6.9
					l-0.8-4.1l1.3-3.1c0-1.6,0-3.2-0.2-5.1c-0.5-10.1-1.3-25.7-2.7-34.8c-1.4-9.1-3.9-23.1-12.1-23.5c0,0-4.1-0.3-9.9,5.4
					c-5.4,5.2-10.2-4.3-10.5-10.1c-0.4-6.8,0.8-13.7,2.5-17c1.7-3.3,6.3-3.5,7.2-3.4c0.9,0.1,3.4,1.1,6.3,2.9c3,1.9,7.1,1.9,9.5-0.6
					c2.4-2.4,5.8-5.2,7.1-15.8s1.4-21.6,0.1-34.8l-1.4-3l8.2-1.8c0-0.1-0.1-0.8-0.2-1.2c0,0,0,0,0,0c0-0.1,0-0.2,0-0.3
					c0,0,0,0,0-0.1c0-0.1,0-0.2-0.1-0.4c0,0,0,0,0,0c0-0.1-0.1-0.3-0.1-0.4l0,0c0-0.1-0.1-0.3-0.1-0.4c0,0,0,0,0-0.1
					c0-0.1,0-0.3,0-0.4c0-0.1,0-0.1,0-0.1c0-0.1,0-0.3-0.1-0.4c0,0,0-0.1,0-0.1c0-0.2-0.1-0.3-0.1-0.5c0,0,0,0,0,0
					c0-0.2,0-0.3-0.1-0.5c0-0.1,0-0.1,0-0.1c0-0.2,0-0.3-0.1-0.5c0-0.1,0-0.1,0-0.1c0-0.2-0.1-0.3-0.1-0.5c0,0,0-0.1,0-0.1
					c0-0.2,0-0.4-0.1-0.5c0,0,0-0.1,0-0.1c0-0.2,0-0.4-0.1-0.5c0,0,0-0.1,0-0.1c0-0.2,0-0.4-0.1-0.6c0-0.1,0-0.1,0-0.1
					c0-0.2-0.1-0.4-0.1-0.5c0,0,0-0.1,0-0.1c0-0.2,0-0.4-0.1-0.6c0-0.1,0-0.1,0-0.1c0-0.2,0-0.4,0-0.6c0,0,0,0,0-0.1
					c0-0.2,0-0.4-0.1-0.6c0,0,0-0.1,0-0.1c0-0.2-0.1-0.4-0.1-0.6c0,0,0-0.1,0-0.1c0-0.2,0-0.4,0-0.6c0,0,0-0.1,0-0.1
					c0-0.2,0-0.4,0-0.6c0,0,0-0.1,0-0.1c0-0.2,0-0.4,0-0.6c0,0,0-0.1,0-0.1c0-0.2,0-0.4,0-0.6c0-0.1,0-0.1,0-0.1c0-0.2,0-0.4,0-0.6
					c0,0,0-0.1,0-0.1c0-0.2,0-0.4,0-0.6c0,0,0-0.1,0-0.1c0-0.2,0-0.4,0-0.6c0,0,0,0,0-0.1c0-0.2,0-0.4,0-0.6c0,0,0-0.1,0-0.1
					c0-0.2,0-0.4,0-0.6c0,0,0-0.1,0-0.1c0-0.2,0-0.4,0-0.6c0,0,0-0.1,0-0.1c0-0.2,0-0.4,0-0.6c0.3-7.6,1.8-10.7,1.8-10.7l0.4-1
					c0,0,2.8-8.9,7-15l-0.1,0.1c0,0,2.7-4.5,7.5-5c4.8-0.5,6.1,1,8.3,1.2c0.3,0,0.5,0,0.7,0.1c0.1,0,0.2,0,0.2,0c0.2,0,0.3,0,0.5,0
					c0.1,0,0.2,0,0.3,0c0.1,0,0.3,0,0.4,0c0.1,0,0.2,0,0.3,0c0.1,0,0.2,0,0.4,0c0.1,0,0.2,0,0.3,0c0.1,0,0.2,0,0.4,0
					c0.1,0,0.2,0,0.3,0c0.1,0,0.2,0,0.3,0c0.1,0,0.2,0,0.2,0c0.1,0,0.2,0,0.3,0c0.1,0,0.1,0,0.2,0c0.1,0,0.2,0,0.3,0
					c0.1,0,0.1,0,0.2,0c0.1,0,0.2,0,0.3,0c0.1,0,0.1,0,0.2,0c0.1,0,0.2,0,0.3,0c0,0,0.1,0,0.1,0c0.1,0,0.2,0,0.3,0c0,0,0.1,0,0.1,0
					c0.1,0,0.2,0,0.3,0c0,0,0,0,0.1,0c0.1,0,0.2,0,0.3-0.1l0,0c0.2,0,0.4-0.1,0.6-0.1l0,0c0.1,0,0.1,0,0.2-0.1c0,0,0,0,0.1,0
					c0.1,0,0.1,0,0.2-0.1c0,0,0.1,0,0.1,0c0,0,0.1,0,0.1-0.1c0,0,0.1,0,0.1,0s0.1,0,0.1-0.1c0,0,0,0,0.1,0c0.1,0,0.1,0,0.1-0.1l0,0
					c0,0,0.1,0,0.1,0c0,0,0,0,0,0c0,0,0.1,0,0.1-0.1c0,0,0,0,0,0s0,0,0.1-0.1c0,0,0.1,0,0.1,0s0.1,0,0.1-0.1l0,0c0,0,0.1,0,0.1,0
					c0,0,0,0,0,0c0,0,0-0.1,0.1-0.1l0,0c0,0,0.1,0,0.1,0l0,0c0,0,0,0,0,0l0,0l0,0c0,0,0,0,0,0s0,0,0,0c2-1.5,3.6-3.1,4.9-4.7
					c0.1-0.1,0.2-0.2,0.2-0.3c0,0,0-0.1,0-0.1c0.1-0.1,0.2-0.2,0.3-0.3c0,0,0,0,0-0.1c0.1-0.1,0.2-0.2,0.2-0.3l0,0
					c0.2-0.3,0.5-0.7,0.7-1c0,0,0,0,0-0.1c0.1-0.1,0.1-0.2,0.2-0.3c0,0,0.1,0,0.1-0.1c0-0.1,0.1-0.2,0.1-0.3c0,0,0-0.1,0.1-0.1
					c0.1-0.1,0.1-0.2,0.2-0.3l0,0c0.1-0.2,0.2-0.3,0.3-0.5c0,0,0-0.1,0-0.1c0-0.1,0.1-0.1,0.1-0.2c0-0.1,0-0.1,0.1-0.1
					c0-0.1,0.1-0.1,0.1-0.2c0-0.1,0-0.1,0.1-0.1c0,0,0.1-0.1,0.1-0.1c0-0.1,0.1-0.1,0.1-0.1c0,0,0-0.1,0.1-0.1
					c0.4-0.8,0.6-1.3,0.6-1.3c3.6-8.9,0.3-17.9-1.3-19.6c-2-2.2-6.3-5.4-6.3-5.4s-2.6-2.2-6.6-0.2c-3.2,1.6-4.3,1.2-4.3,1.2
					c-0.1-3,0.9-8.7,3-13.8c2.1-5,6.6-13.7,6.6-13.7s6.4-10.9,8.9-17.6c2.6-6.7,2.5-11.8,2.5-11.8s-4.8-6.2-5.5-7.2
					c-0.7-1-1.7-1.4-1.7-1.4c-1.2,0.5-2.1,0.6-2.1,0.6l1.1-0.9c0,0,2.6-3,6.5-2c3.9,1,6.8-0.8,6.8-0.8c6.2-4.7,10.1-13.3,10.1-13.3
					l6-12.1l-5-8.1c0,0-0.8-0.2-6,1.6c0,0-4.7,11.6-10.5,18.8c0,0-2.3,3.4-4,2.5c-1.7-0.8-3.8-0.9-5.5-0.5
					c-1.7,0.4-7.1,2.1-11.9,8.6c-4.8,6.5-5.4,11.3-2.8,12.8c2.6,1.5,6.3-0.5,8.6-2.5c2.3-2,3.9-2.9,4.6-2.9c0.7,0.1,0.6,1.9,0.4,2.5
					c-0.2,0.6-1,8.3-9.9,23.8c-2.2,3.9-5.1,9.7-6.5,12.4l3.7,2.7l-6.1,3.1c-1.7,4.6-3.7,11.8-2.9,15.9c1.2,6.2,7.1,6.2,7.1,6.2
					s3.8,0.2,8.2-2.1c4.4-2.3,5.4,7.6,5.4,9.2c0,1.6,0,10.5-6.2,14.9c0,0-2.5,1.9-6,1.9c-3.5,0-5.8-1-5.8-1s-6-1.7-9.7,0.5
					c-3.7,2.2-8.1,6.7-11.6,13.2c-3.5,6.5-6.4,18.2-6.2,26.8c0.1,6.8,1.1,13.2,1.8,17.5l4.1,2.6l-3.3,3.8c0.5,6.9,1,20.5,0.9,25
					c-0.1,5.6-0.9,17.3-6.8,20.1c0,0-2,1-5.3-1.5c-3.3-2.5-6.9-2.6-8.3-2.7c-1.5,0-7.8,1-10.3,8c-2.5,7-2.3,16.4-1.8,21.9
					c0.5,5.5,5.3,15,11.4,15c0,0,3,0.2,6.4-3.4c3.5-3.6,5.5-3.9,7.1-3.8c1.6,0.1,4.5,1.7,6.5,17.3c1.9,14.9,2.7,27.1,2.5,40.6
					l3.7,2.4l-4.6,4.7c-0.3,1.2-0.5,2.6-0.9,3.8c-1,4.2-1.2,8.3-0.2,15.7c1,7.4,5,22.7,10.7,26.6c7.6,5.3,12.6,5.2,17.8,4.8
					c5.1-0.4,8.7-4.3,8.7-4.3s2-2.1,4.2-1.4c2.2,0.6,8.2,4,12.5,12.7c4.3,8.7,5.3,18.2-1.9,19.9c-7.2,1.7-19.7-5.2-19.7-5.2
					s-7.1-3.9-12.8,0.4c-5.8,4.3-6,11-3.1,19.2c1.6,4.5,4.8,11.8,9.2,19.4l4.4,1.9l-1.1,3.4c3,4.6,6.4,9,10.2,12.8
					c0,0,15.1,16.6,23.4,27.1c0,0,0.5,1-1,0.1c-1.5-0.9-7.7-3.8-11.1-3.5c-3.4,0.4-2.8,2.4-2.8,2.4s1.5,7.6,24.4,20.5
					c0,0,8.3,4.6,13.5,4.6c0,0,1.7,0.3,3.7-2.1c2.1-2.3,2.8-2.1,4.2-1.6c1.4,0.5,3.4,1.5,10.6,6.8c7.2,5.2,21.3,13.2,26.3,16.6
					c5.1,3.4,4.8,4,3.8,6.4c-1.1,2.4,3.6,3.8,3.6,3.8s11.6,5.2,17.8,5.2c6.3-0.1,8.9-0.7,12.7,0.1c3.9,0.8,7.8,1.8,8.2,2.1
					c0.4,0.3-1.9,0.2-1.9,0.2s-14.4-1.7-15.2-1.3c-0.8,0.4,0.1,1.2,6,2.7v-0.5c7.6,1.3,15.3,2.4,23,3.1c-3-0.4-15.3-2-23.2-4.3
					c0,0-0.8-0.5,1.1-0.1c1.8,0.4,12.3,1.4,15,1c2.7-0.4-0.6-1.7-0.6-1.7s-5.5-2.6-17.6-3.6c0,0-4.9-0.3-9.1,0.1
					c-4.3,0.4-8.6-1.6-8.6-1.6s-6.3-1.9-4.7-3.9c0.8-1,0.9-2.1,0.4-3.1L230.9,546.1z"/>
			</g>
		</g>
	</g>
	<g id="g4046_2_">
		<g id="path4048_2_" class="st7">
			<g>
				<path class="st1" d="M616.8,311.4"/>
			</g>
		</g>
	</g>
	<g>
		<g>
			<path class="st1" d="M619.9,281.5l-0.6-1.5c0,0.1,0,0.1,0,0.2l-0.2-0.4l1.8-3.1c0,0-1.7,2-8.5,13.2c-7.7,12.7-8.9,23-8.9,23
				s-0.7,4-0.3,6.3c0.4,2.2,1.2,3.1,1.2,3.8c0,0.6-0.5,5.8-3.1,10.8c-2.7,5-5,6.3-5,6.3s-4.6,3.3-5.3,1c-0.6-2.4-0.4-4.4-0.2-5.9
				c0.2-1.5,1.8-9.6,1.6-12.6c-0.2-3-2.9-0.6-2.9-0.6s-0.6,0.7-1.8,2.2c-1.2,1.5-7.9,10-10.4,12.9c-6,7.1-11.5,12.1-26.1,23.9
				c-0.1,0-0.1,0.1-0.1,0.1l-2.1,3.8l4.2,0.7c12-9.6,23.5-21.7,23.5-21.7s7.7-7.7,11.5-14.3c3.6-6.3,0.1,5.4,0.1,5.4
				s-1.9,9.2,1.2,12.6c2.5,2.7,9.5-4.8,9.5-4.8s4.2-4.8,5.9-12.5c2.5-11.4,1.1-13.7,1.1-13.7s-1.5-2.4-0.6-5.2
				c1-2.8,7.1-18.6,12-24.4l1.4-1.6c-2.7,31.2-5.3,41.9-5.3,41.9s0.1-0.2,0.2-0.6c1.1-5,2.2-10,3.1-15.1c-0.1,0-0.1,0-0.1,0
				s2.1-19.7,2.8-26.7c0-0.1,0-0.2,0-0.4l0.8-0.9c0-0.1,0-0.1,0-0.2l-0.6-1.5C619.9,281.7,619.9,281.6,619.9,281.5z"/>
		</g>
		<g>
			<polygon class="st1" points="275.2,169.7 275.2,169.7 275.2,169.7 			"/>
		</g>
		<g>
			<path class="st1" d="M271.1,123.8c-0.6-5.9,0.3-7.9,3.7-9.4c3.5-1.6,6.8-1.1,11.8-0.8c5,0.3,8.7-0.5,11.2-1.9
				c2.6-1.5,9.6-5.3,9.2-13.2c-0.5-7.8-6.8-17.2-11.9-20.4c-5.1-3.2-11.9-1.9-15.6,0.8c-3.7,2.8-5.1,6.3-7.4,7.4
				c-2.3,1.1-5.5,3.7-8.8,2.9c-3.4-0.8-3.5-8.3-5-16.9c-0.9-5.5-1.7-9.8-2.1-12.1l-4.1-1.6c0.3,3.4,3.3,20.1,3.3,20.1
				s1.4,8.3,1.9,10.3c0.5,2,1.9,6.4,1.9,6.4s0.6,2.2,2.8,3.3c2.2,1.1,6.4,1.5,10.6-0.2c4.2-1.7,5.4-3.5,7.3-5.7c1.9-2.2,2.6-3,2.6-3
				s4-3.8,9-2.1c4.9,1.7,7.9,7.5,7.9,7.5l0.2,0.4c0,0,2.3,3.9,2.4,7.5c-0.1,0.3-0.5,2-4.2,4.9c-4.1,3.2-7.5,2.9-10.2,2.7
				c-2.8-0.3-4.1-0.4-4.9-0.3l-4.4,0.2c-4.8,0.7-7.4,2.5-7.4,2.5c-11,6.5,4.5,56.5,4.5,56.5l0,0l3.5-3.5
				C271.5,140.1,271.1,123.8,271.1,123.8z"/>
		</g>
		<g>
			<path class="st1" d="M303.9,271.1c-4.9-8.6-12.9-13.2-16.8-15.1c-4-1.9-13.1-2.8-19.3-0.5s-7.5,4.1-9.8,8.1
				c-2.3,4-5.1,3.7-5.1,3.7s-8.7,0.3-11.5-13c-3.9-18.6,2.2-24.6,2.2-24.6s1.9-2.9,8.3-3.8c6.4-0.9,10.5,0.7,15.5,1.9
				c4.9,1.2,8.6,0.7,14.7-2.3c6.2-3,8.8-7.9,7.6-16.7c-1.2-8.5-1.6-10.6-9-36.3l-5.3-2.8l-1.6,3.7c0,0,3.1,12.5,5.5,20.6
				c2.4,8.1,3.4,16.1,3.8,17.7c0.4,1.7,0.3,4.6-1.9,6.4c-2.2,1.8-7.6,3.2-8.7,3.4c-1.2,0.2-3.3-0.3-6.1-1.2c-2.8-1-5.6-1.2-5.6-1.2
				s-6.8-1.1-13.9,1.1c-7.2,2.2-12.6,9.5-13.1,18.8c-0.4,9.2-0.4,13.9,3.3,22s10.1,12.8,15,12.9c4.9,0.1,8.9-2.5,11.8-6.4
				c2.8-4,3.6-4.6,3.6-4.6c3.3-1.9,11.8-2.6,16.2-1.1c4.3,1.6,12.2,6.5,16.6,16.3c3.5,7.9,4.6,16.7,4.5,32.7l3.5,2.7l3.2-3.2
				C311.7,292.2,308.6,279.3,303.9,271.1z"/>
		</g>
		<g>
			<polygon class="st1" points="307.9,313.6 307.8,313.7 307.9,313.7 308,313.6 			"/>
		</g>
		<g>
			<path class="st1" d="M373.8,535.3c-1,1.6-3.6,3.6-2.3,7.2c1.3,3.6,10.3,2.4,15.4,0.9c5.2-1.6,9.6-3,13-4.2
				c3.5-1.2,4.4,0.5,4.4,0.5s1.5,1.1-3.5,3.7c-5,2.6-14.2,3.9-18.6,4.4c-4.4,0.6-3.1-0.3-9.6,2c-6.6,2.3-0.4,4.3-0.4,4.3
				c14.8,3.9,25.5,0.7,25.5,0.7l2-0.6c1.6-0.5,3.2-1,4.9-1.5c-12.3,2.8-20.3,0.9-22.8,0.6c-2.6-0.4-4.8-0.9-5.4-2.2
				c-0.6-1.3,2.9-1.2,2.9-1.2s10.3-1.2,19.7-4.2c9.5-3.1,11.8-6,11.4-8.2c-0.4-2.2-5.2-2-10.9-0.2c-5.7,1.9-14.2,4.6-16.2,5
				c-2,0.4-4.2,0.4-4.9-0.9c-0.7-1.2-1.3-3.2,0.9-5.5c2.2-2.3,2.5-4.2,2.5-4.2c0.4-1.6,0.4-3.2,0.1-4.9l-3.9-2.3l-2.7,4
				C375.9,532.4,374.7,533.8,373.8,535.3z"/>
		</g>
		<g>
			<path class="st1" d="M43.5,413.8c0,0.1,0.1,0.1,0.1,0.2l1.1,0.8c-0.6-0.6-1-1-1-1S43.6,413.8,43.5,413.8z"/>
		</g>
		<g>
			<path class="st1" d="M523.6,382.8c0,0-10,7.5-20.9,13.4c-11,5.9-23.8,5.2-23.8,5.2s-3.5-0.4-1.8-2.9c1.7-2.5,3.9-8.7,4.7-11.8
				s2.5-11.1-3.9-13.6c-6.4-2.5-18.4,1.2-18.4,1.2s-27.5,7.3-38.8,19.7c-10.9,12-1.7,17.3-1.7,17.3s4.3,3,8.4,4.5
				c3.9,1.4,3.1,2.6,2.2,3.4c0,0-12.3,7.8-26.8,12c0,0-19.9,6.1-39.2,7.3c-19.2,1.2-27.4,1.7-27.4,1.7l-2.4,2.3l-0.1,0l2.4-2.2
				c-2.1-4.1-4.2-7.7-4.2-7.7s-7.8-11.6-1.5-22.5c6.3-11,16.7-14.3,16.7-14.3s9.1-2,18.2,0.1c8.6,2,12.9-1.3,12.9-1.3
				s5.3-2.3,6.9-12.8c1.6-10.5-0.1-30.1-14.1-34c-14-3.9-21.5,3.4-21.5,3.4s-7.5,8.3-10,9.5c-2.5,1.2-6.2,3.4-6.2,3.4
				s-5.3,3.1-8.9,4c-2.4,0.5-10.9-10.8-11.7-19.5c-0.8-8-2.5-14.6-1.9-31l-2.9-3.8l-3.6,4.2c-0.1,1.5-0.1,3-0.1,4.6
				c-0.9,23.6,4.4,35.7,4.4,35.7c3,6.5,6.2,11.1,10.6,14.1s10.4,1,12.3,0c1.9-1,7.3-3.4,11.8-6.3c4.6-2.9,4.4-4.1,9.9-9.2
				c5.5-5.1,12.6-3.7,12.6-3.7s6.8,0.2,10.6,8c3.9,7.8,3.1,18.9,2.1,23c-1,4-2.7,6.7-6.5,6c-3.8-0.7-10-1.3-12.3-1.4
				c-2.3-0.1-8.7-0.3-14.6,1.2c-5.7,1.5-13.4,5.6-20.8,17.6c-5.7,9.3-2.9,18.3-1.6,21.9c1,2.8,3.8,6.7,6.3,11.5
				c-7.8,0.9-21,2.8-34,6c-16,3.9-31.2,7-42,14c0,0-8.1,5.4-3.5,10.6c4.7,5.2,9.5,7.5,9.5,7.5s2.9,1.3,2.8,2c0,1-0.1,1.9-2.2,3.1
				c0,0-8.5,5-25,5.3c-16.5,0.3-23.8,0.1-28.7-4.2c-4-3.6,1-11.2,1-11.2s2-3.7,0-8.9c-2-5.1-13.5-5.2-13.5-5.2l-16-0.8
				c-18.8-0.5-43.7-2.6-54.8-4c0,0-0.1,0-0.2-0.1l0,1l-4.4-1.9c-6.9-1.3-19.8-4.1-24.8-6.6c-4.6-2.3-7.1-1.9-6.5-6.7
				c0.7-4.7-4.6-11.2-4.6-11.2S75,421.9,68.5,417c-6.5-4.9-9.3-3.5-9.3-3.5s-3,1.6-0.3,7.9c2.7,6.3,5.2,8.6,5.2,8.6s1.3,1.3,0.6,1.7
				c-0.7,0.4-3-1.3-4.8-2.9c-1.6-1.3-11.5-10.6-15-13.9l0.7,2.2c0.1,0.2,0.2,0.4,0.3,0.6c1.1,1.8,5.2,7.7,13.1,13.9
				c9.4,7.4,9.5,4.5,9.5,4.5s0.4-2.5-1.8-5.1c-2.2-2.7-5.7-8.3-4.8-10.4c0.9-2.1,1.9-1.9,1.9-1.9s0.8-0.3,3.6,1.8
				c2.8,2.1,9.1,6.6,12.2,10.4c3.1,3.8,3,7.2,3,7.2s-0.6,3.4,2.8,7.1c3.4,3.7,10.6,10.4,35.7,14.3c0.2,0,0.2,0,0.4,0.1l1.2-3.4
				l3.5,4c21.9,3.2,33.8,3.4,33.8,3.4s28.7,1,36.4,1c7.7,0,6.3,4.1,6.3,4.1s-0.5,2.2-1.4,3.9c-1,1.8-3.2,8.3-0.9,11.8
				c0,0,3.6,8.7,26.7,9.3c0,0,20.2,1.6,34.4-4.2c14.1-5.8,1.4-13.8,1.4-13.8s-4.8-3-6.9-4.5c-1.9-1.4-1.1-2.9-0.7-3.9
				c0.4-1,1.8-2.2,3.4-3c1.7-0.8,7.6-4,32.7-10.5c25.1-6.5,40.1-7.2,40.1-7.2s0.1,0,0.2,0l0,0.1c2.4,5.9,4.3,9.1,7.9,13.1
				c4,4.3,10.2,7.6,17.6,10.4c7.4,2.8,4,7.8,4,7.8c-4.2,9.1-16.8,9.5-20.4,9.9c-3.7,0.4-11.4,1.1-18.6,2.7c-7.2,1.6-14,2.6-18,7.2
				c-4,4.7-2.5,9.5-0.1,14.6c2.4,5.1,8.7,7.8,17.4,7.5c8.7-0.4,14.3-2.9,19.6-5.2c5.2-2.3,14.4-4.9,17.1-5.7
				c2.7-0.8,6.4-2.4,9.1,1.6c3,4.3,6.1,10.3,7.5,14.9l3.3-0.8l3.3-0.7c-1.8-6.8-6.4-13.5-7.8-15.7c-1.9-3.1-5.1-4.8-14.6-3.3
				c-9.5,1.6-20.6,6.3-20.6,6.3s-11.5,6.1-20.1,5c-8.6-1.1-10.4-9.8-10.3-12.5c0.1-2.7,1.9-5.1,6.3-6.8c4.5-1.8,15-4.1,30.4-4.9
				c15.4-0.8,21.1-10.8,21.1-10.8c2-2.9,5.6-9.4-3-14.2c-8.6-4.8-8.8-3.6-12.9-6.7c-4.1-3.2-8.6-7-10.3-12.4
				c-0.2-0.5-0.4-1.2-0.7-1.8l-5-3.3l0.1-0.2l5.2,3.4c4.5-0.4,10.2-0.8,15.4-1.1c10.3-0.5,26.4-2.9,35.8-4.9
				c9.4-2.1,23.5-6.5,34-11.9c10.5-5.4,11-9.2,11-9.2s2-2.9-2.4-6.1c-4.4-3.2-6.3-2.3-10.2-6.2c-3.9-3.9,3.4-9.9,3.4-9.9
				s3.7-5.2,24.5-13.2c20.7-8,24.2-5.3,25.3-4.5c1.1,0.9,1.2,3.8,0.8,5.7c-0.4,1.9-3,8.8-4.4,12.5c-1.4,3.6-1.9,8.6,3.7,9.7
				c5.6,1.2,13.5-0.1,20.9-2.7c17.6-6.3,22.9-14,52-35.1c0.1-0.1,0.1-0.1,0.2-0.1l0-3.9l-2.3-0.1
				C535.7,373.7,532.4,376.6,523.6,382.8z"/>
		</g>
	</g>
	<g>
		<g>
			<polygon class="st1" points="47.8,99.2 47.8,99.2 47.8,99.2 			"/>
		</g>
		<g>
			<path class="st1" d="M1.9,239.9c0,0-0.1,0.8,0.6,0.4c0.8-0.4,1.3-8.4,1.3-8.4s0.1-17.1,5.1-37.4c5-20.3,7.8-25.9,7.8-25.9
				s0.9-2.6,0.9-0.5c-0.1,2,1.2,2.2,1.2,2.2c2.3-0.3,5-6.8,7.7-15.2c2.7-8.3,4.1-15.8,4.1-16.4c0-0.7-0.4-1.2-0.9-0.9
				c-0.6,0.4-0.8,0.1-0.8,0.1c-0.1-1.3,2.2-6.9,2.2-6.9c5.6-14.4,13.3-26.5,16.9-31.8c-1.2,1.2-2.2,2.1-2.9,2.8
				c-16.5,27.2-18.6,39.9-18.6,39.9c-0.1,1.3,0,1.9,0.7,1.9c0.4,0,1.5-2.1,0.7,2.2c-0.6,2.9-3.2,10.4-4.2,13.5c-1.1,3.1-2.2,5.2-3,5
				c-0.8-0.1-0.8-1.4-0.8-1.4s-0.3-3.3-2.5,1.5c-2.2,4.8-4.3,11.3-8.7,28.3c-0.2,0.8-0.4,1.6-0.6,2.3l-0.1,3.8l-1.1,2.3
				c-2.9,15.2-3.8,31.3-3.8,32.3c0.1,1.3-0.2,1.3-0.5,1.1c-0.3-0.2,0.2-1-0.3-1c-0.5,0-0.7,1.3-0.7,1.3v0c-0.1,1.8-0.2,3.5-0.4,5.3
				l0.1,0C1.7,239.5,1.9,239.9,1.9,239.9z"/>
		</g>
		<g>
			<path class="st1" d="M50.4,93.3c-1,1.6-1.6,2.6-2.6,4c-0.4,0.6-0.3,1.8,0,2c1.3-1.8,2-2.9,2-2.9L50.4,93.3z"/>
		</g>
		<g>
			<path class="st1" d="M4.4,285.5c-1.4-11-1.5-22.8-1.3-26c0.3-3.3-0.4-5-0.8-5.1c-0.4,0-0.6,0.3-0.8,1.7c-0.2,1.4-0.1,2.4-0.4,2.3
				c-0.4-0.1-0.5-2.9-0.5-2.9h0c0,0.3,0,0.6,0,0.9c0,1.1,0,2.1,0,3.2l0.2,2.4c0.2,3.7,0.8,2.2,0.8,1.5c0-0.7,0.2-2,0.2-2
				s0.6-5.4,0.5,0.1c-0.1,5.5,1.4,27.8,1.4,27.8c0.1,1.5,0.3,2.9,0.4,4.5l0.3,0.4c-0.1-0.1-0.2-0.3-0.3-0.4l0.3,0.4l-1.3,3.2
				c0,0,0.4,0.7,1.6,2.3l0.1-0.5c1.7,13.5,4.3,26.8,4.3,26.8c3.1,14.7,6.8,23.4,8,25.9c1.2,2.5,1.4,0.5,1-1.6
				c-0.4-2.2,3.3,4.2,5.3,10.2c2.1,6,3.4,11,3.4,11s1.6,4.7,0.9,5.1c-0.7,0.3-1.8-1.8-1.8-1.8s-2.9-5.1-1.7-1.4
				c2.4,7.5,9.7,23.3,9.7,23.3l8.5,15.1c-6-11-13.9-28.3-14.8-30.5c-0.9-2.5-1.6-4.4-1.1-3.5c0.5,0.9,1.2,2.6,2.8,4.4
				c1.6,1.8,2.7-1.4-3.8-18.9c-6.5-17.5-8.2-18.5-8.5-18.8c-0.3-0.4-1.3-1.4-1,1c0.3,2.5,0.1,4-3.1-7c-3.2-11-6.1-29.5-6.2-31
				c-0.1-1-0.6-5.7-1.2-11.9l0,0c0,0,0,0,0,0C5.3,292.4,4.9,289.1,4.4,285.5z"/>
		</g>
		<g>
			<path class="st1" d="M608.7,172.9l0.7-3c0,0-1.9-1-4.2-0.5c-2.4,0.5-2.6,2.2-6.2,2.8c-3.6,0.6-7.8,1.9-11.9,8
				c-4.1,6.2,0,13.8,0,13.8s2.2,3.6,3.2,5.5c1.1,1.9,6.5,13.5,0.2,22c0,0-3.4,3.9-9.3,5.2c-5.3,1.2-3.9-5-4.5-8.2
				c0,0-0.8-13.9-7.5-21.9c-5.9-7-16.7,5.4-22.1,9.5c-5,3.8-19.7,18.9-40.7,30l-3.1,5.4l-2-2.9c-10.1,5-32.9,16.2-47.9,21.4
				c0,0-11.4,4.7-16,4.8c0,0-1.1,0-0.2-1.1c0.8-1.1,1.7-2,3.1-4.5c1.4-2.6,4-8.3,4-14.1s-6.8-11.7-16.3-10.6
				c-9.5,1-18.6,3.7-29.5,7.9c-10.9,4.2-20.4,13.1-21.6,20.5c-1.3,7.4,6.8,11.7,6.8,11.7s9,4.6,10.2,7c1.2,2.5,0.3,4.8,0.3,4.8
				s-0.8,2.5-4.8,4.7c-4,2.3-14.7,7.8-14.7,7.8s-13.4,7.4-33.9,9.2c0,0-18.6,1.6-29.3,2.1c-0.1,0-0.3,0-0.4,0l-3.3,3.2l-3.6-2.7
				c-10,0.8-21.6,2.2-21.6,2.2s-26.1,3.7-50,11.1c-20.3,6.3-24.2,9.7-24.2,9.7s-4.3,3.6-0.7,8.8c0,0,2.1,3.3,6.3,6.6
				c4.2,3.3,7.5,6.4,7,8c-0.5,1.6-1.8,2.3-1.8,2.3s-5.8,5.2-29.8,9.2c0,0-15.4,3-20.1-1.7c-4.8-4.7-2.7-7.8-2.7-7.8s0.3-1.1,3.8-3.2
				c0,0,5.8-3.6,3.9-10.5c-1.8-6.9-12.9-15.5-25-15.4c0,0-14.1,0-49.9,4.6c0,0-0.1,0-0.2,0l-1.3,3.1l-3.7-2.4
				c-2,0.3-4.3,0.5-6.8,0.7c-6.2,0.5-15.1-0.4-26.2-3.6c-11.1-3.3-18.1-9.3-19-13c-0.7-2.5,0.2-6.1,0.2-6.1s2.1-8,0.8-14.6
				c-1.4-6.6-3.6-11.8-9.9-15.6c-6.4-3.8-10-3.2-10-3.2s-5.7-0.9-5.5,8.8c0.2,9.7,1.4,13.7,1.4,13.7s1.1,3.4-0.7,3.8
				c-1.8,0.5-4.5-2.2-4.5-2.2s-4.8-4.4-8.5-8.7l0.6,5.9c1.4,1.8,3.5,4.1,6.5,7.2c6.6,6.8,8.7,2.6,8.7,2.6s1.5-4.3-0.4-12.1
				c-1.9-7.8-1.6-12.4,2-12.3c3.5,0.1,13.7,2.2,16.9,10.7c0,0,1.3,4,0.1,9c-1.2,5.1-1,9.6-0.1,14c0.9,4.4,4.6,8.6,8.9,12
				c4.3,3.4,16.7,9.3,28.8,10.1c12.1,0.8,15.8,0.1,15.8,0.1l4.6-4.7L99,342c4.9-0.6,12.9-1.4,22-2.4c15.4-1.7,25.7-3.3,35.3-1.9
				c9.6,1.5,12.6,8.9,12.6,8.9s0.7,1.9-1.6,3.3c-2.1,1.4-4.6,3.3-5.8,5.4c-1.2,2.1-2.5,6.5,1,12.4c3.5,5.9,13,9.7,21.2,8.7
				c8.1-1,20.3-4.1,27.5-6c7.8-2.1,14.8-5.9,15.7-12.1c0.9-6.1-9.3-14-9.3-14s-5-3.7-5.5-4.6c-0.6-0.9,0.6-1.2,0.6-1.2
				s5.8-1.4,8.3-2.5c2.4-1.2,9.3-3.9,20.4-7.4c11.1-3.5,34.1-7.6,34.1-7.6s12.7-2,28.5-3.3l3.8-4.3l2.9,3.8c2.5-0.1,5.1-0.3,7.6-0.4
				c21.7-0.8,32.5-3.4,44.1-6c11.6-2.6,27.8-12,30.3-13.9c2.4-1.8,7.5-4,8.5-11.9c1-7.9-8.3-13.1-8.3-13.1s-7.4-3.9-9-5.7
				c-1.6-1.8-0.1-3.4-0.1-3.4s4.2-9,17.6-14.3c13.4-5.3,22.4-6.7,28.1-7.4c5.7-0.6,7.6,1.5,8.3,2.4c0.8,1,0.8,3,0.1,5
				c-0.6,1.9-2.7,6.3-3.9,8.5c-1.2,2.2-3.2,7.4-1.9,9.9c1.2,2.5,5.1,3.6,10.1,2.7c5-0.9,18.2-4.6,29.8-9.4
				c11.6-4.8,30.9-14.3,30.9-14.3s0.1,0,0.1-0.1l0.5-4.4l4.5,1.8c6.2-3.4,16.8-9.6,24.4-16c11.4-9.6,22.5-19.6,25.4-22.2
				c2.8-2.6,5.4-4.6,8-4.5c2.5,0.1,4.5,1.9,6,8.7c1.6,6.8,1.9,12.4,2.6,15.7c0.7,3.3,1.8,7.1,5.7,7.9c3.9,0.8,9.2-2.6,11.2-4.3
				c2-1.7,5.6-7.2,5.4-14.5c0,0,0.4-9.8-4.6-19.1c0,0-2.1-3.7-2.9-4.7c-0.6-0.7-1-1.5-0.1-3.2c0.9-1.7,2.9-5,6.5-7
				c2.7-1.6,5.4-1.9,6.9-2.4c0,0,1.7-0.4,3.8-1.6l-0.8-2.5l1.8,1.9c2.5-1.5,4,0.3,4,0.3L608.7,172.9z"/>
		</g>
		<g>
			<path class="st1" d="M5.6,295.5C5.6,295.5,5.6,295.5,5.6,295.5L5.6,295.5L5.6,295.5z"/>
		</g>
	</g>
	<g id="path4211_2_">
		<g>
			<path class="st1" d="M553,71.4l1.1,5.1c0,0-3.5,1.9-10.2,3.7c-6.8,1.8-13.3,4.9-13.3,4.9s-5.4,1.8-3.4,6.2
				c2.1,4.4,5.1,6.5,5.1,6.5s4.3,4.2,4.5,7.4c0.2,3.2-1.2,4.7-4.7,6.5c-3.4,1.9-6.5,2.3-6.5,2.3s-8.2,1.5-12.2-2.4
				c-4-3.8-4.8-10.1-4.8-10.1s-0.3-5.3-7-7.6c-6.7-2.3-14.9,2.6-14.9,2.6s-6.5,3.4-13.4,7.9c-7,4.5-20.1,10-28.3,12.9l-0.9,4.3
				l-4.6-2.3c-8.7,3-19.9,6.8-19.9,6.8s-15.3,5.7-25.4,7c-10,1.4-12.3-0.1-13.6-1.5c-1.4-1.4,0.2-6.2,0.2-6.2s4.1-8.4,2.1-12.7
				c-2-4.4-15-5.5-15.2-5.5c-0.3,0-14.1-1.6-27.1,5.7c-11.5,6.5-13,10-13,10s-3.7,5.7,0.7,11.3c4.9,6.4,11.5,7,11.5,7
				s6.2,0.5,7.7,2.3c1.4,1.8,0.5,3.8,0.5,3.8s-2.1,5.7-13.6,8c0,0-19.4,5.7-55.5,10.8l-3.5,3.5c-22.8,2.9-49.6,8.3-64.3,12.1
				c-14.7,3.8-15.5,8-15.5,8c-3.2,4.9,0.9,7.5,0.9,7.5s5,1.7,6.2,7.3c1.1,5.5-4.8,9.9-4.8,9.9s-7.1,5.9-17.7,7.7
				c-10.6,1.8-14.6,2.1-20.9-2.9c-5.5-4.4-1.8-11.3,1.9-14c3.7-2.7,5.5-5.5,6-6.8c0.5-1.3,0.2-2.3,0.2-2.3l-3.5-3.3
				c-12.2-8.1-60.2,0.4-60.2,0.4l0,0l-8.2,1.8l-4.1-2.7c0,0-13.9,3.7-29.7,3.6c-16.5-0.1-7.7-13-7.7-13s3.9-6.8,4.6-10.7
				c0,0,1.4-10.6-8.6-9.9c-10,0.7-12,9.4-12,9.4s-0.7,4.9-0.5,8.5c0.1,3.6,0,11.2-4.5,15.6c-4.5,4.4-9.3,3-9.3,3s-8.1-3.5-9.7-4.4
				c-1.7-0.9-3.2-0.9-4.6-0.4c-0.1,0-0.3,0.1-0.4,0.2l-1.1,4.6l0.2-3.8c-1,1.1-1.7,2.6-1.7,2.6l0.5,2l-1.5,3.4c0,0.1,0,0.2,0,0.2
				h0.1c0,0,0.5-1.2,1.4-2.2l1.1-2.2l-0.3,1.5c0.4-0.3,0.7-0.4,1.1-0.5c1.7-0.1,3.8,1,3.8,1s6.9,3.7,10,4.4c3.1,0.7,5.3-0.4,7.3-1.8
				c3.2-2.2,7-6.8,8.5-11.2c1.4-3.9,1.7-14.6,1.7-14.6v0.1c0,0,0-2.6-0.1-3.2c-0.1-0.6-0.5-3.4,1.3-4.8c1.7-1.4,2.8-2.1,7-2.2
				c4.2-0.1,5.4,2.3,5.4,2.3s1.4,2,1.4,3.3s-0.4,2.1-0.4,2.1s-2.3,3.8-3,5.7c-0.8,1.9-3.9,8.1-3,13.2c0.9,5.2,9,7.6,9,7.6
				s6.5,1.5,15.7,0.2l19-3.1l3.3-3.8l1.3,2.9c4.9-0.9,13-2.3,21.8-3.1c14.1-1.4,29.2-1.6,35.5-0.8c0,0,2.9,0.4,2.4,1.4
				c-0.4,0.8-2.6,2.5-2.6,2.5s-0.8,0.5-4,4.1c-3.2,3.6-4.1,7.1-4.2,10.1c-0.1,3.1,3.2,12.1,14.7,14.6c11.6,2.4,24.8-2.1,24.8-2.1
				s8.7-1.9,17-10.2c8.6-8.6,0.1-18.9,0.1-18.9s-1.3-1.9-3.9-2.7c0,0-1.2-0.3-0.5-1.1c0.7-0.7,2.3-3.9,8.3-5.5
				c6.1-1.6,24.2-7.3,67.4-13l1.7-3.8l5.3,2.8c16.5-2.3,27.7-4.2,47.7-8.8c0,0,18.5-3.3,22.4-10c2.2-4,6.3-9.4-0.3-14.8
				c0,0-0.8-1-4.8-1.9c-4.1-0.9-7.2-1.6-10.6-4c-3.4-2.5-3.4-5.3-3.4-5.3s-0.3-2.7,5.3-5.8c0,0,5.2-3.8,15.5-7.1
				c10.3-3.2,22.2-1.8,22.2-1.8s5,0.6,4.2,3.9c-0.9,3.4-3.7,9-3.8,11.9c-0.1,2.9,0.1,6.3,5.7,8.6s13.8,1.6,13.8,1.6
				s8.4-0.4,22.2-4.9c13.8-4.5,28-9.6,28-9.6l-0.6-3l5.9,1.1c3.6-1.4,8.6-3.3,13.9-5.7c11-4.9,16.2-9.1,21.2-11.9
				c0,0,11-6.8,17.6-6.6c0,0,1.5-0.1,1.7,2c0.1,2,0.6,5,1.3,6.7c0.7,1.7,4.5,11.1,16.6,12.5c12.1,1.4,17.3-6.8,17.3-6.8
				s4.2-6.4-3-14c0,0-5.8-6.3-6-6.7c0,0-0.6-1,1-1.4c1.7-0.5,19.2-5.4,26-8.5c0,0,0.1-0.1,0.2-0.1l-1.6-2.9l3.3,2.2
				c1.2-0.6,2.7-1.5,3.3-2.4c1.1-1.7-0.3-4.9-0.3-4.9l0.1,0c-0.8-1.1-1.6-2.2-2.4-3.3l-3.7-1.6l-0.4,0.2L553,71.4"/>
		</g>
	</g>
	<g id="path4328_2_">
		<g>
			<path class="st1" d="M549.9,451.8c0.1,0,0.1-0.1,0.1-0.1C550,451.7,549.9,451.8,549.9,451.8z"/>
		</g>
	</g>
	<g id="path4334_2_">
		<g>
			<path class="st1" d="M533.6,466.8l-1,1.1c-3.9,4.4-5.9,6.1-5.9,6.1l-1.5,1.7l0,0c0,0-0.1,0.1-0.1,0.1c0.1,0,0.1,0,0.3,0
				c0,0,1.4,0,3.6-1.4c-0.5,0.3-0.9,0.4-1.1,0.5c-1.1,0.1,2.6-3.3,2.6-3.3s3.6-3.8,5.9-6.8c2.3-3,0.8-2.9,0.8-2.9s-0.5-0.1-2.4,0.8
				C535,462.8,535.9,464,533.6,466.8z"/>
		</g>
	</g>
	<g id="path4336_2_">
		<g>
			<path class="st1" d="M550.4,451.3c0-0.1,0.1-0.1,0.1-0.1C550.5,451.2,550.4,451.2,550.4,451.3z"/>
		</g>
	</g>
	<g id="path4342_2_">
		<g>
			<path class="st1" d="M534.6,462.7c-0.1,0.1-0.2,0.1-0.3,0.1C534.4,462.8,534.5,462.8,534.6,462.7z"/>
		</g>
	</g>
	<g id="path4346_2_">
		<g>
			<path class="st1" d="M531.2,464.6c0.2-0.1,0.4-0.2,0.5-0.3C531.6,464.4,531.4,464.5,531.2,464.6z"/>
		</g>
	</g>
	<g id="path4430_2_">
		<g>
			<path class="st1" d="M533.8,463.1c-0.1,0.1-0.2,0.1-0.2,0.2C533.6,463.2,533.7,463.1,533.8,463.1z"/>
		</g>
	</g>
	<g id="path4434_2_">
		<g>
			<path class="st1" d="M532.2,464c-0.1,0.1-0.2,0.1-0.3,0.2C532,464.2,532.1,464.1,532.2,464z"/>
		</g>
	</g>
	<g id="path4446_2_">
		<g>
			<path class="st1" d="M533.4,463.3c-0.1,0-0.1,0.1-0.3,0.1C533.3,463.4,533.3,463.3,533.4,463.3z"/>
		</g>
	</g>
	<g id="path4448_2_">
		<g>
			<path class="st1" d="M533,463.5c-0.1,0.1-0.2,0.1-0.3,0.1C532.9,463.6,532.9,463.6,533,463.5z"/>
		</g>
	</g>
	<g id="path4450_2_">
		<g>
			<path class="st1" d="M532.6,463.8c-0.1,0.1-0.2,0.1-0.3,0.2C532.4,463.9,532.5,463.8,532.6,463.8z"/>
		</g>
	</g>
	<g id="path4452_2_">
		<g>
			<path class="st1" d="M533.9,463.1c0.2-0.1,0.2-0.1,0.4-0.2C534.1,462.9,534,463,533.9,463.1z"/>
		</g>
	</g>
	<g id="path4454_2_">
		<g>
			<path class="st1" d="M532.5,471.9c0,0-0.5,0.4-1.2,0.9C531.7,472.5,532.2,472.2,532.5,471.9z"/>
		</g>
	</g>
	<g id="path4751_2_">
		<g>
			<path class="st1" d="M165,184.4"/>
		</g>
	</g>
	<g id="path4837_2_">
		<g>
			<path class="st1" d="M102.9,49.7h0.7c-1,2.9-4.8,6.9-6.5,9.6c-0.9,1.5-1.5,3.5-2.9,4.6c0.2,0.3,0,0,0.3,0.3
				c0.5,0.3,5-0.9,5.8-1.4c0.5,0.1,0.5,0.1,0.7,0.2c0.3,0.4-2.9,6-3.6,6.8V70c1.2-0.1,3.1-0.4,3.9-1c2.3-1.8,2.9-5.7,4.6-8.2
				c-0.1-0.4-0.2-0.8-0.3-1.2c-1.4-0.3-4.2,0.1-5.3,1H100c0.6-2.9,5.3-8.2,7-10.6c2.8-4,5.4-7.7,8.2-11.6c1.5-2,3.6-3.8,5.1-5.8
				c1.7-2.2,3.5-5.2,5.8-6.7v-0.5h-1c-1.1,0.8-4.1,1.3-5.5,2.2c0.2,0.8,0.1,0.6,0.7,1c-0.9,2.3-3.7,4.1-5.1,6c-2.3,3-4.8,5.9-7,8.9
				c-0.8,1-1.3,2.6-2.2,3.4c-1.5,1.3-5.6,1.1-7.2,2.4h-0.5c0.4-2,5.5-8.5,7-9.9v-0.2c-2.5,0.4-4.4,1.7-6,2.9
				c0.3,0.6,0.2,0.5,0.7,0.7c-0.9,1.5-2.2,2.5-3.1,3.8c-1.2,1.7-1.9,3.7-3.1,5.3c0.1,0.3,0.2,0.5,0.3,0.7
				C95.5,52.5,101.9,50.4,102.9,49.7z M314.6,82.3c1.2,0.4,2.4,0.8,3.6,1.2c1,0,2,0,2.6-0.2c-0.1-4-2.2-5.6-3.6-8.2
				c-0.7-1.4-1.1-3.2-2.2-4.1c0.4-1.5,4.4-1.9,6-2.4c4-1.3,8.3-2.6,12.3-3.9c1.9-0.6,4.1-0.5,5.6-1.4c0.9,0.1,1.3,0.2,1.7,0.7
				c0.9,1.3,1.6,10.2,1,12.8c-2.4,10.1-5.5,18-11.8,24.1v0.2c2.4-0.4,3.5-2.7,5.1-3.9c6.4-4.8,10.7-12,13-21
				c1.3-5.3-0.9-10.4,1.2-14.9h-0.3c-0.4-1.2-6.6-3.4-8.4-3.4c-1,1.1-2.4,2.5-3.9,3.1c-2.2,1-5.1,0.7-7,1.9
				c-1.8-0.1-3.1-3.5-1.9-4.8c-0.1-0.6-0.1-0.7-0.3-1c-1.5-1.2-5.2-1.1-7.7-1c-0.8,0.8-1.5,0.9-1.9,2.2h-0.3
				c-0.1,0.5,0.1,0.3,0.3,0.5c0.2,0.1,1-0.1,1.5,0.2c2.7,0.3,2.7,3.5,4.1,5.1c-0.2,0.4-0.1,0.3-0.3,0.5c-1,0.8-7.9,2.8-9.4,3.1
				c-1.1,0.3-2.5-0.4-3.4-0.5c-2.1-0.2-3.9,1-5.1,1.7c0.7,1,2.7,0.7,3.4,1.7C311.2,74.1,312.3,78.5,314.6,82.3L314.6,82.3z
				 M362.6,78.9c1.1,0.6,1.1,2,1.7,3.1c1.2,2.3,2.7,5,3.4,7.5v1.9c0.6,1.5,2.4,1.7,3.7,2.7c0.9-0.1,1.3-0.4,1.9-0.7
				c-0.4-4.6-3.2-8.4-4.8-12c-0.5-1.2-1.3-2.8-1.4-3.8c-0.1-0.7,0.4-1.1,0-1.7c-0.3-0.8-0.5-0.5-1-1c-0.4-0.2-0.2-0.1,0-0.5
				c0.4-0.9,1.3-1.7,1.7-2.7c0.8-1.9,0.8-3.5,2.4-4.6c-0.3-2.5-3.9-2.8-6.8-2.7c-0.4,0.3-1,0.4-1.5,0.5c0.3,0.6,0.5,0.8,1.2,1
				c0.7,7.1-4.2,13.5-7.5,17.8c-1.3,1.7-3.4,2.8-4.6,4.6h-0.2v0.3C354,88,360.9,81.4,362.6,78.9z M73.9,138.9
				c-0.5,0.1-0.5,0.1-0.7,0.2c-1.7,0.9-4.7,8.7-8.2,6.5c-1.8,0-1.9-0.3-2.9-1c0.1-2.3,4-6.5,5.6-7.5c0.2-3.7,1.1-7.6,0.7-11.1
				c-0.3-0.1-0.5-0.2-0.7-0.2c-0.9-0.3-1.6,1-2.2,1.7c-1.8,1.8-4,3.7-5.3,5.8c-2.1,0-8.6-0.1-9.9,0.7h-0.7c0.6-1.6,5.3-6.7,3.9-8.9
				c-0.1-0.3-0.2-0.5-0.3-0.7c-4.4,0-9.7,7.8-11.1,11.1c-0.7,1.6-0.7,3.5-1.7,4.8v0.3c3.3-0.4,6.6-0.8,9.9-1.2
				c1.3-0.3,3,0.3,3.9-0.2h3.4c0.6-0.7,1.2-1.5,1.7-2.2c2-2.1,4.7-4.3,6.3-6.7h0.7v3.4c-1.9,1.7-4.7,4.2-5.5,6.8v1.9
				c-1.2,5.4,1.4,8.1,6,7.7c3.1-2.8,8.1-5.2,7.5-10.8C73.9,138.9,74.2,139.1,73.9,138.9z M46,134.5h-1.5c0.7-2.7,3.3-5.7,6.5-5.8
				v1.2c-1.1,1.5-2.3,2.9-3.4,4.3C47,134.3,46.4,134.3,46,134.5z M564.9,135.7c-1-2.5-1.8-4.4-2.9-6.5c-1.8-3.5-3.7-8.6-8.9-8.7
				c-1.3,1.1-2.6,2-3.4,3.6c-4.7,10.7,5,22.8,9.4,28.7c1.6,2.1,3.4,4.3,5.8,5.5c-0.6,8.4-7.7,11-15.4,7.7c-5.5-2.4-9.8-7.5-13.2-12
				c-1.1-1.5-2.9-2.8-4.1-4.3c-1.1-1.5-1.9-3.1-3.1-4.3v-0.3h-0.5c0.7,2.6,2.2,5,3.2,7.2c4.1,9.4,9.3,15.9,17.1,21.4
				c3.7,2.6,9.9,6.7,15.2,2.9C573.3,170,568.7,145.1,564.9,135.7z M564.2,147.3c-0.6,0.6-3.3-2.6-3.9-3.1c-2.7-2.7-8.1-7.4-5-12h1.2
				c2.4,2.5,4.5,4.8,6,8.2c0.8,1.8,0.9,4.9,1.9,6.5C564.3,147.3,564.4,147.1,564.2,147.3z M404.5,195.5v-2.4
				c1.1-4.9,0.9-10.7,1.9-15.7c1.5-6.6-0.6-13.1,6-14.7c0.1-0.7,0.4-0.9,0-1.5c-0.1-0.4-0.1-0.3-0.2-0.5c-0.3-0.2-0.2-0.2-0.7-0.3
				c-1.9,1.4-6.9,2.3-9.4,2.9c-1.9,0.5-3.9,0.1-5.3,1c-0.3,0.1-0.5,0.2-0.7,0.2c0.1,0.5,0.2,1,0.3,1.5c2.7,0.9,5.2-0.2,6.5,2.2
				c0.8,1.6,0.7,7.1,0.3,9.2c-1.5,7.1-0.9,15.2-2.5,22.1c-0.5,2.4,0.2,7.1-0.9,8.9v0.5c-1.5-0.7-2.5-2.6-3.4-3.9
				c-2.2-2.8-5.3-5.1-7.5-8c-1.3-1.7-2.7-3.7-4.3-5.1c0.2-4.6,1.6-9.5,2.7-13.7c0.8-3.2,0.8-6.1,2.4-8.4c0.9-1.3,3.1-2.2,4.6-2.9
				c0-0.6,0-0.9-0.3-1.2c-0.1-0.3-0.1-0.5-0.2-0.7c-3.3,0.5-6.1,2.1-9.2,2.9c-2.8,0.8-5.5,0.6-7.7,1.7c0.1,0.6,0.1,0.7,0.2,1
				c0.1,0.3,0.2,0.5,0.3,0.7c8.5-0.5,7.2,4.1,5.5,10.6c-0.5,2-0.2,4.7-1.2,6.3v0.5h-0.3c-1.7-2.6-4.3-5.2-6.5-7.5
				c-0.9-0.8-1.8-1.6-2.7-2.4c-0.6-0.8-1-1.9-1.7-2.7c0.1-2.7,2.3-3.3,4.3-4.1c-0.1-1.1-0.3-1.3-0.7-1.9c-6.3,0.9-11.7,4.5-18.8,4.8
				v0.3h-0.3c0,0.6,0,0.9,0.2,1.2v0.5c1.4,0.2,3.4-0.3,5.1,0.3c2.6,0.9,4.9,3.9,6.5,6c2.4,3.1,6.1,5.8,8.4,8.9
				c1.3,1.7,2.6,3.9,4.3,5.1c-0.3,4.2-1.4,8.7-2.5,12.5c-0.5,2-0.2,4.5-1.2,6c-0.2,0.4-0.1,0.2-0.3,0.5c-2.3-4.4-6.7-7.7-9.6-11.5
				c-5.6-7.4-11.8-14.1-17.6-21.4c0-1,0.1-1.6,0.5-2.2c0.5-1.4,2.2-2.7,3.9-2.9c0.1-0.8,0.2-0.8-0.2-1.5c-0.1-0.2-0.2-0.5-0.3-0.7
				c-4.9,0.8-9.3,3-14,4.3c-2.4,0.7-5.6,0.4-7.5,1.7c-0.3,0.1-0.5,0.1-0.7,0.2c0.2,0.9,0.4,1.1,0.7,1.7c1.9,0,3.9-0.6,5.8,0
				c4.8,1.5,8.3,6.9,11.1,10.6c1.2,1.6,3.1,3,4.3,4.6c5.2,6.9,11,13.1,16.1,20c2,2.7,4.7,5,6.5,7.9c1.1,0,1.3-0.2,1.9-0.5
				c1.3-5.7,2-11.4,3.7-17.1c0.7-2.6,1.7-5.7,1.9-8.7c2,0.7,3.6,3.7,4.8,5.3c3.8,5,9.1,9.1,12.5,14.5c1,0,1.1-0.2,1.7-0.5
				C402.4,211.9,403.4,203.7,404.5,195.5L404.5,195.5z M24.6,236.7c-0.1,15-0.9,38.2,10.8,41.4c4.3,1.2,6.6-1.7,7.9-3.7
				c4.8-7.1,3.5-21-1.2-27c-2.1,0.2-5,5.1-6,6.8c-0.5-0.1-0.5-0.1-0.7-0.3c-0.6-0.3-0.5-0.4-1-0.7c-0.4-5.7,0.8-11,1-16.4
				c6.3,0.6,11.8,4.2,18.3,4.6c0-1.1,0-2.7,0.5-3.4c-0.1-0.6,0-0.7-0.3-1c-0.9-0.7-5.8-1.9-7.2-1.9V235h-0.2
				c0.9-7.2-1.2-12.7-6-14.7c-2.7-0.5-5.5-1-8.2-1.5c-1.4-0.5-2.1-1.6-3.1-2.4c-0.4-2.3-0.8-4.9,1-6.3c-0.1-0.9-0.2-1-0.7-1.5v-0.3
				h-0.3c-0.8,1.4-1.5,3-1.9,4.8c-1.4,6,1.9,11.1,5.5,12.3c2.5,0.4,4.8,0.8,7.3,1.2c1.9,0.8,2.7,2.3,4.1,3.6c-0.1,3.1-3,3.5-5.5,2.7
				c-3.9-1.3-8-2.2-12-3.6c-1.1-0.4-2-1-3.4-1.2c-0.2,1.6-0.4,3.1-0.5,4.6c3.4,1.1,6.8,2.1,10.1,3.1c-0.1,8.5-3.5,18.7,0.7,25.3
				c0.5,0.1,0.9,0.2,1.2,0.5c4.8-0.3,5.7-4.1,8.2-6.8c2.1,5,0.5,13.7-4.1,15c-2,1.4-4.9-0.4-6-1.5c-4-3.7-4.8-9.2-6.3-15.4
				c-0.5-2.1,0.2-6.3-0.7-8c0-2.5,0.6-6.9-0.7-8.2v-0.2L24.6,236.7L24.6,236.7z M603.2,277.2c-0.9-4.1,0.4-9-0.5-12.8v-3.9
				c-0.6-2.8-0.4-6.4-1-9.2c-1.2-5.3-0.1-11.7-2.2-16.2c-1.2-0.3-2.4-0.5-4.1-0.5c-0.6,0.6-1.1,1-1,1.7c0.5,2.2,3.3,2.6,4.1,4.8
				c0.1,1.1,0.1,2.1,0.2,3.1c0.8,3.4,0.7,7.8,1.4,11.3v2.9c0.4,1.8,1,6.3,0.5,7.7c-0.9,2.5-3.6,4.7-5.3,6.5
				c-4.6,4.6-10,10.4-18.1,11.3c-0.2,0.4-0.1,0.3-0.3,0.5c0.1,3,2.9,2.4,4.8,3.6c0.5-0.1,1-0.2,1.4-0.3c0.8-0.5,1.2-1.5,1.7-2.2
				c1.2-1.6,3.5-2.4,4.6-4.1h0.3c0,7.3,0.2,15.6,0.2,22.6h0.7c1.7-7.1,1.5-15.9,1.4-24.6c3.2-3,5.2-7.3,8.4-10.1v-0.5h0.3
				c0,7.6,0.2,15.4,0.2,23.1c0,2.5-0.6,8.4,0,9.4v1.4h0.5c0.7-2.6,0.8-6.2,1.5-9.1V290C603.9,286.7,603.9,280.4,603.2,277.2z
				 M170.8,292.6c-2.1-0.9-4.7-2.8-6-4.6c-3.9-5.3-8.1-17.9-5.3-27.4c2.3-7.7,7.3-12.9,15.4-15c4.1-1,8.5,0.4,11.1,1.7
				c7.4,3.8,10.5,9.2,12.8,18.1c2.9,11.5-0.8,22-8.4,25.5c0.5,4.7,1,9.3,1.5,14c2.7-0.1,5.2-0.6,7.5-1.2c3.8-1,7.7-1.1,11.3-1.9
				c2.6-0.7,6.4-0.1,8.4-1.5c0.5-1-1.5-8.2-1.9-9.9c-0.4-1.4-0.1-2.8-0.7-3.9v-0.5c-0.6,0.1-1.1,0.2-1.7,0.3
				c0.1,7.3-5.1,6.3-10.8,7.7c-2.9,0.7-6.4,1.6-9.6,1.7c0-1.1,0-2.1,0-3.1c0.3-0.5,4.5-2.3,5.3-2.9c2.8-2,5.7-5,7.5-7.9
				c1.2-2,2.2-4.7,2.9-7c0.9-3,1-7.1,0.3-10.1c-0.5-2.1-0.3-3.7-1-5.5c-2.6-7.2-8-12.5-14.9-15.4c-3.1-1.3-6.7-1.4-10.4-2.2
				c-3.3-0.7-9.2,0.8-11.6,1.5c-11.6,3.4-19.5,9-23.1,20.2c-1.4,4.4-1,10.6,0.3,14.7c2.8,9.5,10.8,18.4,22.7,18.5v0.3
				c0.4,0.5,0.4,1.6,0.7,2.2c-0.1,0.4-0.1,0.3-0.2,0.5c-1,0.7-2.5,0.4-3.8,0.7c-2.9,0.8-12.1,3-14.2,1c-1.3-0.5-2.3-2.2-2.4-3.9
				c-0.6,0-0.9,0-1.2,0.3h-0.5c0.9,4.7,1.8,9.3,2.6,14h0.3v0.3c8.4-1.5,16.9-2.9,25.3-4.4c-1.2-4.4-2.4-8.8-3.6-13.2
				C174.2,293,172,293.1,170.8,292.6z M583,265.9c0.5,1.3,1.6,3.5,2.7,4.3c0.5,0.4,0.8,0.3,1.2,0.7c8,0.7,11.2-13,8-21
				c-0.6-1.4-3.1-5.4-5.5-3.9h-0.5c0.2-0.4,0.1-0.2,0.2-0.5c0-1.2-0.1-1.6-0.5-2.2c-0.5-0.1-0.9-0.2-1.4-0.2
				c-0.2,0.2-0.1,0.1-0.5,0.2c0.2,1.5,0.7,1.5,0.7,3.1C583.5,250.1,580.2,258.6,583,265.9z M585.7,253.1c0.5-1.3,1.6-2.1,2.4-3.1
				c0.5-0.1,0.5-0.1,0.7-0.3c1.8,0,2.3,0.4,3.4,1c1.9,4.3,2.1,11.9-0.9,15.2c-0.5,0.5-1.4,0.7-1.9,1.2
				C584.2,266.7,583.8,257.5,585.7,253.1z M473.9,348c-2.7-1.7-3.1-10.2-4.1-14c-2-7.4-2.9-15.2-5.1-22.6c-1.4-4.8-3.2-9.8-2.6-15.7
				c0.8-0.9,1.4-2,2.4-2.7c1.4-0.9,3.5-1.4,4.6-2.7c0.2-0.3-0.1-0.8-0.3-1.5c-2.8,0.4-5.3,2.1-7.7,3.1c-4.8,2.1-9.5,3.3-14.5,5.3
				c-1.5,0.6-3.1,1.7-5.1,1.9v1.5c0.2,0.1,0.3,0.2,0.5,0.3c0.3,0.3,6.3-2.4,8.2-0.7c2.2,0.8,1.9,3.6,3.1,5.3
				c-0.4,3.7-4.1,9.5-5.5,12.7c-3.5,8.1-7.1,15.8-11.1,23.4c-1.5,2.9-3.3,8.1-5.3,10.4v0.2c-1.3-1.8-1.2-6.4-1.9-8.9
				c-2.1-7.5-3.5-15.8-5.8-23.1c-0.4-1.4-1.9-7.8-1-9.1c0.3-3.3,5-4.8,7.7-5.8c-0.1-0.6-0.1-1.1-0.2-1.7c-4.3,0.7-8.7,2.9-12.5,4.4
				c-3.6,1.4-6.9,1.9-10.6,3.1c-1.8,0.6-3.9,1.7-6,1.9v0.3h-0.3c0.1,0.7,0.1,1.1,0.5,1.4c1,0.7,6.3-2.1,8.4-0.5
				c3.4,1.2,3.5,6.6,4.6,10.1c3,9.6,4.4,20.3,7.2,30.1c0.7,2.5,2.4,10.3,0.7,12.3c-0.9,2.7-5.4,3.8-8,4.8c0.1,0.5,0.1,1,0.2,1.4
				c3.7-0.6,7.1-2.3,10.4-3.4c6.5-2.2,12.6-4,18.8-6.3c-0.1-0.6-0.2-1.1-0.3-1.7c-2.7,0.7-4.7,1.5-8.4,1.4c-0.5-0.4-1-0.8-1.5-1.2
				c-0.4-1.3-0.8-2.6-1.2-3.8c0.3-3,4.2-8.6,5.5-11.3c4.1-7.9,7.7-15.8,11.3-24.1c1.4-3.2,4.6-7.8,5.1-11.3c1.1,0.7,0.8,2.7,1.2,4.1
				c0.8,2.9,1.3,6,2.2,9.1c1.7,6.1,2.4,12.6,4.1,19c0.7,2.4,1.6,6.4,0.5,8.9c-1.1,2.5-5.1,4.1-7.7,5.1c0.1,0.5,0.2,1.1,0.5,1.4
				c0,0,5.5-1.8,6.5-2.2c6.8-2.9,13.6-5.8,20.5-8.4c-0.1-0.6-0.2-1.1-0.3-1.7C480.1,347.2,476.2,349.4,473.9,348L473.9,348z
				 M587.8,368.2c-0.9,0.8-2.2,1-3.1,1.7c-3.1,2.2-6.3,5.9-8.4,8.9c-1.7,2.5-3.2,5.1-4.8,7.7c-0.7,1.2-0.9,2.5-1.7,3.4v0.5
				c2.1-0.4,3.3-1.7,4.8-2.7c4-2.5,7.6-4.7,11.3-7.5c1.8-1.3,3.1-3.3,5.1-4.6c0.2-2.9,0.8-5.1-0.5-7.2
				C589.7,368.3,588.9,368.2,587.8,368.2L587.8,368.2z M584.9,376.9c-1.5,1.1-2.9,2.6-4.3,3.6c-1.3,0.9-2.8,1.4-3.9,2.4h-0.3
				c0.8-2.5,5-6.7,7-8.2c1.1-0.8,2.4-1,3.4-1.7h1c0.2,0.3,0.2,0.3,0.5,0.5C588.1,375.3,586.1,376,584.9,376.9z M64.3,386.3
				c-1-3.1-1.7-6-2.7-8.9c-0.5-1.5-0.4-3.2-1.2-4.4v-0.7c1.6,0.6,4.1,0.5,5.5,1.5h1.2c-0.3-1.3-0.5-3.4-1.2-4.4
				c-0.7-1.2-5.4-1.2-6.7-2.2c-1.9-1.5-3.7-5.8-5.1-7.9c-3.4-5.4-7.9-11.2-13-15c-2.7-2-4.6-4.1-9.4-4.1c-0.6,0.4-1.2,0.8-1.7,1.2
				c-1.1,4.8,0.9,13.7,3.6,15.9v0.5c-1.1-0.3-2.4-1-3.1-1.7h-0.3c0,1.4,0.3,3.2,1,4.1c0.3,1.2,2.2,2.2,3.4,2.4
				c1.5,6.3,3.6,12.8,5.8,18.6c1.7,4.6,2.7,9,4.5,13.5c1,2.2,3.2,3.8,3.9,6h0.7c-0.5-2-1.7-4-2.4-5.8c-2.2-5.3-4-10.9-5.8-16.3
				c-1.2-3.6-2-7-3.1-10.4c-0.4-1.3-0.3-2.6-1-3.6v-0.2c1.7,0.3,2.6,1.2,3.9,1.7c2.8,1.2,5.5,1.7,8.4,2.9c2.2,0.9,4.8,2.1,7.5,2.4
				c0.3,2.2,1.6,7.9,2.7,9.4v0.7c-3.7-2.5-3.6-6.1-10.1-5.5c-0.3,0.4-0.8,0.7-1.2,1c-0.6,1.5-0.7,4,0,5.5c1.6,4,6.5,12.1,10.6,13.2
				c1.6,1.1,3.9-0.3,4.6-1.5c1.5,0.8,1.8,4.2,2.4,5.8c1.3,3.4,3.2,7.8,6.3,9.4v0.3h0.5c-0.4-2.7-1.9-5.2-2.9-7.5
				C67.7,397,66,391.6,64.3,386.3z M57.3,366.8c-2.6-0.2-4.7-1.2-6.8-1.9c-5.4-2-10.4-3.7-15.2-6c-0.6-2.2-4.6-10-2.4-12.7
				c0.2-0.3,0.4-0.5,0.5-0.8c0.5-0.1,0.5-0.1,0.7-0.2C41.6,346,49,355,52.7,360c1.5,2,2.6,4.9,4.6,6.3V366.8L57.3,366.8z
				 M61.2,387.7c-0.7,0.9-1.4,1.8-2.2,2.7c-0.6,0.5-1.4,0.7-1.9,1.2c-4.1-0.1-4.3-4.2-6-6.8c0-2.4,0.9-2.4,1.9-3.6
				c0.6,0,0.7,0,1-0.2c3.7,0,4.6,1.7,6.8,3.1C61,385.6,61.3,386.2,61.2,387.7z M202.8,424.8c-1-1.7-3-2.1-4.3-3.4
				c-0.4-0.1-0.3,0-0.5-0.2c3.1-1.6,6.4-3.4,9.6-4.8c0.9,1,4.9,4.8,6.3,4.1c0.3-0.1,0.5-0.1,0.7-0.2c-0.1-1.4-0.2-2.7-0.3-4.1
				c-3-3-7.5-5.5-12.5-6.5v0.2h-0.2c0.6,1.7,2.4,3.2,3.9,4.1v0.7c-2.9,0.4-5.4,1.8-7.9,2.7c-1.8,0.6-3.9,0.5-5.3,1.5h-0.7
				c1.1-2.9,4.5-5.3,6.3-7.7c3.5-4.7,6.3-10.5,11.8-13.2c-0.1-2.2-6.5-6.8-8.9-5.3c-0.6,0.3-0.2-0.1-0.5,0.5c-0.4,0.9,0.9,2,0.5,3.4
				c-0.5,1.9-5.1,10.6-6.3,11.5v0.3c-2.5-0.9-4.4-3.2-6.8-4.3c0.4-2.2,2.3-3.9,3.4-5.6c2.8-4.2,5-8.1,9.1-10.8
				c-0.1-3.2-5.2-6.5-8.7-6.5c0,1.5,0.8,2.3,0.5,3.6c-0.9,3.9-2.7,7.9-4.1,11.3c-1,2.2-1.4,4.9-2.9,6.5c-0.3,0.2-3,0-3.6-0.5
				c-0.9,0-1.8,0-2.4,0.2v0.5c4.1,3.9,8.4,5.3,14,7.7c-0.8,4-4.8,6.7-6.8,9.6c-1,0-1.8-0.1-2.4-0.5c-0.6,0.1-0.6,0.1-1,0.2
				c0.1,3.6,3,6.6,6,7.2c2-2.2,4.5-3.3,7.5-4.6c2.7,2.9,3.5,6.9,4.6,11.6c0.5,2-0.3,4.2,0.3,6c0.9,3.1,2.6,4.1,4.1,6.3h1.7
				c1.1-5.7-1.5-11.1-2.9-15.7C203.7,428.7,203.3,426.8,202.8,424.8z M583.5,384.1c-1.5,1.3-3.5,1.8-5.1,2.9c-2.4,1.7-4.6,4-7,5.8
				c-1.1,0.8-2.7,1.6-3.4,2.7c-1.2,1.8-0.9,4.9-2.4,6.5v1c1.9-0.7,2.8-2.9,4.3-4.1c1.9-1.4,3.4-3.3,5.3-4.6c1.1-0.8,2.5-1.3,3.6-2.2
				c0.8,0.2,0.7,0.2,1.2,0.5c-0.1,6.1-3.4,10.4-5.3,15c-0.6,1.3-0.7,3.4-1.7,4.3c-0.4,0.5-1.4,0.6-1.9,1c-1.6,1.8-3.2,3.5-4.8,5.3
				c-1.5,2.1-2.2,4.9-3.9,7c0,0.7,0,1.3,0.2,1.6c0.3,0.2,0.7,0.4,1,0.5c3.1-2.9,6.1-5.4,8.7-8.9c4-5.5,6-12.4,8.9-19
				c1.8-4.2,4.5-8.2,4.3-14.2c-0.3-0.3-0.5-0.6-0.7-1L583.5,384.1L583.5,384.1z M566.6,422.2v0.2h-0.2c0.4-2.9,2.6-3.7,3.6-5.8h0.5
				C570.2,419,568.4,421.2,566.6,422.2z M206.5,426c-0.5,2.1,4.6,6.8,6.3,8c0.8,0.6,1.9,2,3.2,1.4c0.6,0,0.8-0.1,1.2-0.3
				c0.3-0.6,0.7-1.5,0.3-2.2C217.1,430,209.3,426.6,206.5,426z M229.6,444.6c0.4,0.2,0.8,0.1,1.2-0.2c0.9-0.7,0.4-1.9,1-2.9
				c1.4-1,3.7-0.7,5.5-1.2c5-1.3,10.7-1.2,16.2-2.4c2.6-0.6,6.9,1,8.9-0.2c0.3-0.1,0.5-0.2,0.7-0.3c-0.1-3.2-6.2-4.5-9.4-3.6
				c-1.4,0.4-3.1,1.3-4.6,1.7c-1.1,0.1-2.2,0.2-3.4,0.2c-0.4-3.9-2.3-7-2.4-11.1c3.6-0.1,8.2-0.5,10.6-1.9c-0.1-1.2-0.3-1.2-0.7-1.9
				c-2.7-0.7-7.5-0.8-9.6,0.7c-0.6-0.1-0.9-0.1-1.2-0.3c-1.4-1.7-0.7-5.2-1.9-7v-0.9c2.6-0.6,6.8-1,8.2-2.9c0.2-0.3,0.1-0.1,0.2-0.5
				c-0.2-0.2-0.3-0.4-0.5-0.7c-3.8-1-5.4-0.3-8.6,1c-1-3.3,0.2-5.8-3.1-6.8c0.7-1.2,3.1-1.2,4.6-1.7c2.3-0.8,5-1.8,7-2.9
				c0.2-0.4,0.1-0.3,0.3-0.5c-0.1-1.2-0.5-1.2-1-1.9c-3.5-0.3-6.3,0.1-8.2,1.9h-0.5c0.3-1.8,1.4-4.4,2.4-5.8c0.7-1,2-0.9,2.4-2.2
				h0.3v-0.3c-0.5-0.6-1-1.3-1.5-1.9c-1.1-0.8-2.8-0.9-3.9-1.7c-1.6,0-3.1,0-4.1,0.5c0.1,0.9,0.6,1.5,0.7,2.2
				c0.7,2.5-1.7,10.1-2.7,11.3c-0.8,1-9.4,4.1-11.8,3.4c-0.6-0.2-2.2-1-2.7-1.4c-0.2-0.3-0.1-0.1-0.3-0.5
				c3.4-3.2,5.9-10.4,10.6-11.8c0.1-0.4,0.2-0.8,0.3-1.2c-1.2-1.2-6.9-7.2-9.9-5.3c-0.3,0.1-0.5,0.1-0.7,0.2c0,2.1,1,3.6,0.5,5.8
				c-1.1,4.3-3.6,9.5-5.8,13c-1.3,2.1-4.2,4.4-4.3,7.5c3.9-0.4,4.9-4.5,7.9-5.6c0.9,0.8,1.8,1.6,2.6,2.4c1.3,1.9,1,4.7,1.7,7.2
				c1.1,5.2,2.3,10.4,3.4,15.7c0.1,2.6,0.3,5.1,0.5,7.7C225.2,440,227.1,444,229.6,444.6z M237.3,426.3c0.2,2.2,1.6,8.6,2.7,10.1
				c0,0.2,0,0.4,0,0.5c-2.9,0.6-5.9,1.5-9.2,1.5c-0.5-3.5-2.1-6.5-2.2-10.1C232.3,428.2,234.2,426.7,237.3,426.3z M223.3,406.3
				c0.4-0.6,6.8-1.7,7.5-1.2c2.6,1.2,1.6,5,3.1,7.2c-0.5,1.2-6.4,3-8.2,3.1C225.4,412.9,225,407.7,223.3,406.3z M234.4,415.4h0.3
				c0.5,2.2,0.7,5.9,1.9,7.7c-0.9,2.1-6.2,2-8.2,3.1c-0.9-0.5-2-6.5-1.9-8.2C228.3,417.9,233.1,416.3,234.4,415.4z M192.7,429.2
				c-0.4,0.8-0.3,2.2-0.7,3.1c-2.1,5.1-2.8,6.2,0.5,11.1c1.4,0,1.6-0.2,2.4-0.7C195.8,438.7,196,431,192.7,429.2z M467.4,430.6
				c-7-1.7-12.9,1.7-20.3,1.2c-0.7-0.7-1.2-1.2-1.7-2.2c-5.1,0.1-10.7,11.5-5.5,14.9c2.7,1.9,10.6,0.8,14,0c1.9-0.4,4.8-0.9,6.3,0.3
				c2,1.5,1.7,7.2,1,10.4c-0.8,5.9-1.6,11.9-2.4,17.8c-0.7,3.6-1.4,7.2-2.2,10.8c3.7,0,7.2-3.8,8.2-6.5c0.6-1.6,0.3-3.1,0.7-4.8
				c1.3-5.1,1.5-11.1,2.7-16.4c0.8-3.5,0.3-6.7,0.9-9.9c0.5-2.4,0.9-10.3,0.3-12.5C468.9,432.5,468,431.6,467.4,430.6z M137.6,503.4
				c-0.8-0.6-1.4-1.7-2.2-2.4c-2.9-2.6-6.3-5-9.4-7.2c-2.6-1.8-6.1-2.9-8.4-5c-0.1-0.5,0.8-1.8,0.3-3.2c-2.1-5.5-9.6-11.7-14.5-14.7
				c-2.2-1.4-5.9-2-7.9-3.4c-1.5-0.1-2.3-0.1-2.7,1c-0.6,1.4,1.3,3.2,1.9,4.1c1.7,2.3,3.5,5,5.8,6.7c1.7,1.3,3.6,2.4,5,3.9h0.7
				c-0.9-2.6-3.7-4-5.8-5.5c-1.9-1.4-2.7-3.9-4.3-5.5c0.1-0.8,0.2-0.7,0.5-1.2c6.7,0.1,10.9,6.2,14,10.1c1.3,1.8,3.5,2.8,3.6,5.8
				c-0.7,0-1.3,0-1.7-0.3h-0.7c1.2,3.2,5,2.9,7.7,4.6c5.4,3.3,9.7,8.6,14.5,12.7c1.6,1.4,4.4,2.8,4.8,5.3c-3.3-0.2-5.6-2-7.7-3.4
				c-3.7-2.4-9.7-6.7-12.3-10.1c-0.5-0.6-0.7-1.6-1.2-2.2c-0.7-0.7-1.6-0.9-2.2-1.7h-1c-0.2,2.5,2.5,4.3,4.1,5.8
				c5,4.6,10.3,8.8,16.6,12c2.3,1.2,6.4,3.2,8.9,1.7C143.7,507.9,139.8,505.1,137.6,503.4z M285.9,519.3
				c-12.3-8.4-30.4-16.9-51.3-16.4c-1,0.6-3.1,0.1-4.3,0.5c-1.8,0.5-2.8,1.4-4.1,2.2c0,5.9,8.8,9.1,13.7,10.4c3,0.7,5.5-0.6,7.2-1.2
				c1.3-5-4.7-5.7-7.5-8.2h-0.5v-0.2c18.5-0.7,32.3,4.5,42.9,12.3c2.6,2,5.7,4.7,7,7.9c0.5,1.2,0.7,3.2,0,4.1
				c-1,2.7-4.2,2.5-7.2,3.2c-7.1,1.6-16.8-2.4-20-5.5c-0.6,1.2,0.3,2.9-0.7,4.1c-1.1,2.9-4.8,2.2-8.2,2.9
				c-5.6,1.2-14.3-1.7-17.6-3.8c-0.9-0.7-1.6-1.8-2.5-2.5c-0.1-0.6-0.1-0.8-0.3-1.2c0.5-0.5,1.1-1.2,1.5-1.7
				c6.9-0.5,10.4-0.2,14.5,3.6c-0.1,0.5-0.1,0.5-0.3,0.7c-0.4,0.9-1.5,1.1-2.9,1v0.5c2.6,0,3.6-0.4,5.1-1.2c0.1-0.5,0.2-1,0.3-1.4
				c-0.8-0.9-1.4-2-2.4-2.7c-4-2.6-12.1-3.9-16.6-0.9c-0.7,3.4,1.4,5.3,3.4,6.8c3.9,3,7.2,4.7,12.8,6.3c1.8,0.5,3.4,0,5.3,0.5
				c1.7,0.4,4.7,0.5,6.5,0c3.1-0.8,7.3-4,3.8-7.7v-0.2c1.8,0.6,3.3,2.4,5,3.4c4.6,2.4,12.3,4.4,19.3,2.9c3.4-0.8,7-0.8,7.9-3.9
				c1.1-1.7-0.4-4.1-1-5C292.6,524.4,289.7,521.8,285.9,519.3z M241.4,508.2c0.9,0.6,1.4,1.8,2.2,2.5c0,0.6,0,0.9-0.3,1.2
				c-1.6,4.2-10.4,1.1-12.5-0.5c-0.7-0.5-1-1.5-1.5-2.2c0.1-0.5,0.1-0.5,0.3-0.7c0.7-1.9,2.5-1.2,4.1-2.2
				C236.7,506.3,239.5,506.9,241.4,508.2z M465,510.6h-2.4c-1.6,1.3-4.2,1.4-6,2.4c-1.6,0.9-3.5,2-5,3.2c-1.3,0.9-2,2.5-3.2,3.6
				c0.1,1.2,0.1,1.4,1,1.7c0.3,0.2,0.1,0.1,0.5,0.3c0.3-0.3,0.5-0.4,0.7-0.7c0.2-0.2-0.2-0.7-0.3-1.4c2.4-2.3,4.1-3.6,7.5-5.1
				c0.9-0.4,2.7-1.4,3.9-0.7h0.5c-0.2,2.4-5.6,9.7-7.2,10.9v0.7c4.4-1.2,7.4-10,10.4-13.2c-0.1-0.6-0.1-0.7-0.3-1L465,510.6
				L465,510.6z M445.7,528.5c-1.4,1.3-4.9,1.4-6.5,2.6H439c0.6-0.9,1.8-1.3,2.4-2.2c0.5-0.6,0.7-1.4,1.2-1.9
				c-0.1-0.5-0.1-0.5-0.3-0.7v-0.5c-7-1.3-18.8,4.8-22.4,8c-0.9,0.8-1.5,2.1-2.4,2.9c0,0.7,0.1,1,0.2,1.4c4.3,0.3,12.3-2.4,13.2-5.8
				c0.2-0.2,0.1,0,0-0.3v-0.5c-2.9-0.2-6.8,0.5-8.7,2.2H422c1.6-2.5,7.4-4.5,10.6-5.5c1.1-0.4,3.4-0.9,4.3-0.2
				c0.2,0.1,0.5,0.1,0.7,0.2c-0.6,2.4-4,5.1-6.3,5.8v0.5c3.7-0.9,7.1-2.5,10.4-3.9c2.3-0.9,4.8-1.1,6.7-2.4c1.4-0.9,6.2-7.3,6.5-9.1
				C449.5,519.9,449,525.4,445.7,528.5z M426.6,533.3v0.7c-0.5,0.3-0.8,0.9-1.2,1.2c-1.3,0.7-2.9,0.6-4.1,1.4
				c-0.6-0.1-0.7,0-0.9-0.3h-0.3C420.8,534.3,424.8,533.4,426.6,533.3z M326.2,555.9c0.1-0.2,0.2-0.5,0.3-0.7
				c-6-0.3-11.9-0.5-17.8-0.7c-0.8,0.5-1.9,0.2-2.9,0.5c-1.2,0.4-2.6,0.9-3.6,1.5c0.2,0.4,0.1,0.2,0.3,0.5c1.5,1.2,9.9,1.2,11.6,0
				h0.5v-0.5c-2.6-0.8-7.2,1.2-9.1,0H305v-0.3c6.4-0.5,13.6-0.3,20.3-0.3c-0.7,0.5-2,0.3-2.7,0.7c-0.3,0.1-0.5,0.2-0.7,0.3v0.5
				c1.5,0.2,2.9,0.5,4.3,0.7c0.2,0.2,0,0,0.2,0.2c-2.1,1.4-7.6,0.9-9.6-0.2v-0.5c-1.1-0.5-6,0.5-7,0.7c-0.8,0.2-1.7-0.1-2.2,0.3
				c-1,0.1-1.1,0.2-1.7,0.5c0.2,0.8,0.2,0.7,0.5,1.2c1.6,0.4,4.2,0.4,6,1v-0.2h0.3v-0.3c-0.9-0.4-3.4-0.2-4.3-0.7h-0.5
				c0.8-0.6,8.7-1.7,10.1-0.7c0.4,0.1,0.3,0,0.5,0.2c-1.3,0.2-2.6,0.5-3.9,0.7c0.1,0.4,0,0.2,0.2,0.5c0.4,0.3,1.2,0.3,1.9,0.3
				c-0.3,0.4-0.4,0.6-0.7,1c0.1,0.1,0.1,0.3,0.3,0.5c3.4,0,6.3-0.3,9.1-0.9c1.7-0.4,3.8,0.3,5.1-0.5h1.9v-0.5
				c-3.3,0-11.5-0.4-13.5,1h-0.7c0.2-0.3,0,0,0.2-0.3c1-1.1,2.9-0.6,4.6-1c2.7-0.7,7.1-1.7,9.4,0c0.7,0.4,0.3-0.1,0.2,0.7
				c0.7,0,1.1,0,1.5-0.2h1.7v-0.5c-2.2-0.5-5.4-1.5-7.3-2.6C327.5,556.9,328,556.1,326.2,555.9L326.2,555.9z M81.4,111.6
				c-0.5,2-1.7,3.6-2.4,5.3c-1.6,3.7-3.1,7.5-4.6,11.1c-1.3,3-2.1,7.9-3.9,10.3v0.5c2.5-0.5,4.3-3,5.8-4.6
				c3.7-3.9,11.7-13.5,11.6-20.7c-0.4-0.4-0.7-1-1-1.5C85.4,111.8,83.5,111.6,81.4,111.6z M82.4,121.8c-1.1,1.8-1.7,3.6-2.9,5.3
				c-1.1,1.6-2.8,2.8-3.9,4.3h-0.3c0.3-1.8,1.3-3.3,1.9-4.8c1.4-3.4,2.4-6.8,4.1-9.9c1,0,1.7,0.1,2.2,0.5c0.6,0.4,0.2-0.1,0.5,0.5
				C84.5,118.9,82.9,120.8,82.4,121.8z M510,47.8c-2.5-2.6-4.4-5.7-7-8.2v-0.2c-1.3,0.5-5.5,4.2-6.3,5.3c-1.6-0.6-2.4-2.2-3.6-3.1
				c-4.1-3.1-8-7.1-15.2-7c-0.9,0.7-2.2,0.7-3.4,1.2c-3.2,1.4-6.6,4.2-7.9,7.5c-1.5,3.7,0,9.1,1.1,11.8c2.4,5.5,6.3,10.2,9.6,14.7
				c2.8,3.7,5.9,7.6,11.1,8.9c5.8,1.5,8.6-5.4,10.9-8c2.2-2.6,7.2-3.3,8.9-6.8c0.7-1.3,0.2-3.7-0.2-4.8c-1.1-2.6-6.5-9.9-8.7-11.3
				c0.1-1.5,0.8-1.5,1.4-2.4c1.5,0.7,2.1,2.9,3.2,4.1c1.4,1.6,3.3,2.4,4.8,3.9c2.3,0,3.7-0.6,4.8-1.7h0.2
				C513.3,50.1,511.2,48.9,510,47.8L510,47.8z M496.3,73.8c-4.2,1-6.3-1.8-8.6-4.1c-5.7-5.7-9.6-12.7-14-19.8
				c-1.5-2.4-5.4-6.9-3.4-10.4h1c1.2,1.8,3.3,3.1,4.6,4.8c3.6,4.8,8,8.9,11.6,13.7c2.2,3,4.6,5.7,6.8,8.7c1.1,1.5,1.9,3.4,3.4,4.6
				C497.2,72.5,496.8,73,496.3,73.8z M499.9,56.7c1.9,2.7,4.6,4.2,4.6,8.9c-0.7,0.7-1,1.4-2.2,1.7c-0.3,0.2-0.1,0.1-0.5,0.3
				c-3.4-5.7-8.3-10.4-12.3-15.7c-1.3-1.7-3.3-3.1-4.6-4.8c-2.2-2.9-4.8-5.3-7.2-7.9c-0.7-0.8-1-1.6-1.9-2.2
				c0.2-0.5,0.2-0.4,0.5-0.7c4.1,0,6.1,2.8,8.4,4.6C490.6,45.2,495.6,50.7,499.9,56.7z"/>
		</g>
	</g>
	<g>
		<g>
			<path class="st8" d="M160.2,7.8c-5,1.7-8.5,3.6-8.5,3.6l-1.1,0.6l-4.1-5.9c0.1,0.1-0.9-0.2-4.3,0.6c-4.7,1.1-10.6,4.6-12.9,7.7
				c-2.3,3.1-2.7,4.7-2.7,4.7l-0.1,0.4l-0.3,0.3c-11.1,9.7-20.1,13.5-20.5,13.7l-0.4,0.1c-2.1,0.2-3.5,1.3-3.5,1.3
				c-8.6,7.2-19.1,19.7-19.2,19.8c-0.1,0.1-0.2,0.3-0.5,0.7c-0.3,0.6-0.9,3.1-0.9,3.6c0-0.1,0.1,0.1,0.2,0.1l1,0.7l-0.9,1.4
				C74.2,71.3,71.1,74,71,74.1l-1.1,1L69,73.9c-0.4,0.2-2.4,1.4-3.7,2.2c-2.8,4-9.7,15.6-9.8,15.7l-0.3,0.5l-1,0.3
				c-0.3,0.1-1.3,0.8-1.8,1.1l-0.6,0.4L51.2,94l-3.4,1.9c-19.2,31.7-32.5,66.2-39.5,102.6l0.6,2.2l-1.7,3.9
				C4.3,221.9,2.7,240,2.7,258c0,11.7,0.7,23.5,1.9,35l2.3,3.3l-1.4,3.6c5.5,41.5,19.1,80.7,40.3,116.8l1.4,1.1l0.7,2.5
				c57.4,94.5,157.5,151,268,151c79,0,154.4-29.5,212.4-83c57.6-53.1,93-125.2,99.7-202.9l-1.5-3.7l2.1-3.4c0.4-7,0.6-13.8,0.6-20.2
				c0-27.4-3.5-54.6-10.6-80.9l-2.7-3.4l0.8-3.3c-10.2-35.1-27.4-69.6-49.7-99.7l-2.7-1.2l-2,1.4c0.5,2.3,1,4.3,1,4.3l1.2,4.5
				l-3.4-3.2c-2.9-2.7-10.3-12.7-10.6-13.1c-7.1-7.9-12.9-16-12.9-16.1l-0.5-0.7l0.8-1.2l-1.2-3.6c-2.6-5-12.3-12.9-12.4-12.9
				c0,0-3.5-2.4-5.7-3.3c-1.5-0.6-3.1-0.8-4-0.9l-1.6,1.9l-1-0.7c-6.5-4.3-26.2-20.1-28.6-22l-2.7-0.8c-0.8,0.4-2.2,1.1-4.7,1.8
				c-3.9,1-7.2,1.5-10.2,1.9L465,6.8c-1.2,0.2-1.7,0.4-2,0.5l-5.4,8.7c0,0.2,0,0.5,0.2,1c0.2,0.5,1.3,1.6,2,2.1c0,0,3.5,2.6,6.1,4.3
				c2.4,1.5,3.3,2.7,3,3.7l-0.2,1l-1,0.1c-7,0.6-9.1-0.3-12.3-1.8c-3.5-1.8-5.6-5.7-6.3-7.4c-0.7-1.6-2.3-3.1-2.9-3.6
				c-2.8-1.6-9-1.9-16.2-0.6c-6.8,1.2-16.3,4.3-17.8,4.9c-1.6,0.6-10,3.4-14.4,4.6c-2.4,0.6-4.5,1.3-6.4,1.8
				c-1.4,0.4-2.7,0.8-3.8,1.1c-2.6,0.7-21.8,6.4-28.1,8.3c-6.9,2.1-11.3,2.8-11.5,2.9c-10.7,1.1-14.2-0.8-14.5-1
				c-2-0.8-2.4-3.3-2.3-4.5l0-7c0,0-0.2-1.9-1.5-2.6c-1.7-1-4.2-1.4-9.2-1.6c-4.8-0.2-10,0.3-12.6,0.8c-4.4,1-7.8,2.8-10.1,5.5
				c-3,3.3-2.7,5.8-2.7,5.9c0,0.1,0.2,4.3,0.6,7.4c0.2,2.2,2,2.9,2.1,2.9l2.4,0.9l-2,1.5c-0.2,0.1-5,3.5-19.2,7.6
				c-9.3,2.7-16.4,4-20.1,4.5l12.9,6.5l55.5,8.8l5.8,95.8l-52.7-0.8c0.1,0.2,0.1,0.5,0.2,0.7l0.5,1.5l-1.6,0.2
				c-23.6,3-50.2,8.4-64.9,12.2c-13.3,3.5-14.8,7.1-14.8,7.2l-0.2,0.4c-2.4,3.8,0.2,5.6,0.5,5.8c0,0,0,0,0,0c0.1,0,5.6,2,6.9,8.2
				c1.4,6.4-5.1,11.2-5.3,11.4c-0.2,0.2-5.9,4.9-14.8,7.3l2.3,37.7l-104.7-34l4.3-94.1l45.9-106.7l23.6-9.2l6.9-11.2
				C164.5,6.5,163,6.8,160.2,7.8z"/>
		</g>
		<g>
			<path class="st1" d="M207,205.1c-1.3-6.2-6.8-8.2-6.9-8.2c0,0,0,0,0,0c-0.3-0.2-2.8-2-0.5-5.8l0.2-0.4c0,0,1.4-3.7,14.8-7.2
				c14.7-3.8,41.3-9.3,64.9-12.2l1.6-0.2l-0.5-1.5c-0.1-0.2-0.1-0.5-0.2-0.7l-2.9,0c-23.3,3-49.2,8.3-63.7,12.1
				c-13.7,3.5-16.2,7.6-16.7,8.9c-2.9,4.8-0.4,8.2,1.7,9.5c0.2,0.1,4.4,1.6,5.4,6.3c1,4.7-4.3,8.6-4.4,8.7c-0.1,0-5.3,4.3-13.3,6.6
				l0.2,2.8c8.9-2.4,14.6-7.1,14.8-7.3C202,216.3,208.4,211.5,207,205.1z"/>
		</g>
		<g>
			<path class="st1" d="M621.1,176.1l-2.3-3.1l0.7-2.7l-0.1-0.4c-10.3-35.7-27.8-70.6-50.5-101.2l-0.2-0.3l-4.8-2l-4.7,3.2l0.2,0.9
				c0,0,0,0,0,0c-3.1-3.8-6.7-8.7-6.9-8.9c-5.9-6.5-10.7-13-12.3-15.2l0.5-0.8l-1.6-5c-2.9-5.7-12.7-13.7-13.2-14.1
				c-0.1-0.1-3.8-2.6-6.3-3.6c-2.6-1-5.4-1.2-5.5-1.2l-0.7,0l-0.9,1c-7.6-5.3-27.4-21.2-27.6-21.3l-4-1.3L480.1,0l-0.6,0.7
				c0,0-0.9,0.7-4.3,1.6c-3.7,1-7,1.4-9.9,1.8l-0.7,0.1c-3.1,0.4-4,1.5-4.2,2.3l-5.3,8.5l-0.2,0.4c-0.1,0.2-0.2,1.2,0.3,2.7
				c0.6,1.5,2.6,3.1,3,3.4c0,0,3.5,2.6,6.1,4.3c-4.1,0.1-5.6-0.6-7.7-1.7c-2.8-1.4-4.6-5-5.1-6.1c-1.1-2.5-3.5-4.5-3.8-4.7
				c-5.1-2.9-14.5-1.7-18.3-1.1c-6.9,1.2-16.5,4.4-18.3,5.1c-1.6,0.6-9.8,3.4-14,4.5c-2.5,0.6-4.6,1.3-6.5,1.8
				c-1.4,0.4-2.6,0.8-3.7,1.1c-2.4,0.6-17.2,5-28.2,8.3c-6.7,2-11.1,2.8-11.1,2.8c-9.6,1-12.7-0.6-12.9-0.7c-0.9-0.4-0.8-1.9-0.8-2
				l0-7.2c0-0.1-0.3-3.4-2.9-4.9c-2.1-1.2-5-1.7-10.4-2c-5-0.2-10.6,0.3-13.3,0.9c-4.9,1.1-8.8,3.2-11.6,6.3c-3.9,4.4-3.3,8-3.3,8
				c0,0,0.2,4.2,0.6,7.4c0.2,1.8,1,3,1.8,3.8c-2.4,1.3-7.5,3.6-16.6,6.2c-13.3,3.9-22,5.6-22.1,5.6l-4.3,1.5l4.1,1.6
				c3.7-0.5,13.7-3.4,23-6.1c14.2-4.2,19-7.5,19.2-7.6l2-1.5l-2.4-0.9c-0.1,0-1.9-0.8-2.1-2.9c-0.3-3.1-0.6-7.3-0.6-7.4
				c0-0.1-0.3-2.6,2.7-5.9c2.4-2.6,5.8-4.5,10.1-5.5c2.5-0.5,7.8-1,12.6-0.8c5,0.2,7.5,0.7,9.2,1.6c1.3,0.7,1.5,2.6,1.5,2.6l0,7
				c-0.1,1.3,0.3,3.7,2.3,4.5c0.4,0.2,3.8,2.1,14.5,1c0.2,0,4.6-0.8,11.5-2.9c6.3-1.9,25.4-7.6,28.1-8.3c1.1-0.3,2.4-0.7,3.8-1.1
				c1.8-0.6,3.9-1.2,6.4-1.8c4.3-1.1,12.8-3.9,14.4-4.6c1.5-0.6,11-3.8,17.8-4.9c7.3-1.3,13.4-1,16.2,0.6c0.6,0.5,2.1,2,2.9,3.6
				c0.7,1.6,2.8,5.6,6.3,7.4c3.2,1.6,5.3,2.4,12.3,1.8l1-0.1l0.2-1c0.2-1.1-0.7-2.2-3-3.7c-2.6-1.7-6-4.3-6.1-4.3
				c-0.7-0.5-1.8-1.6-2-2.1c-0.2-0.5-0.2-0.8-0.2-1l5.4-8.7c0.2-0.1,0.8-0.4,2-0.5l0.7-0.1c3-0.4,6.3-0.8,10.2-1.9
				c2.6-0.7,4-1.3,4.7-1.8l2.7,0.8c2.4,1.9,22.1,17.7,28.6,22l1,0.7l1.6-1.9c0.9,0.1,2.5,0.3,4,0.9c2.2,0.9,5.7,3.3,5.7,3.3
				c0.1,0.1,9.8,8,12.4,12.9l1.2,3.6l-0.8,1.2l0.5,0.7c0.1,0.1,5.8,8.2,12.9,16.1c0.3,0.4,7.7,10.4,10.6,13.1l3.4,3.2l-1.2-4.5
				c0,0-0.5-1.9-1-4.3l2-1.4l2.7,1.2c22.3,30.1,39.5,64.5,49.7,99.7l-0.8,3.3l2.7,3.4c7,26.2,10.6,53.5,10.6,80.9
				c0,6.4-0.2,13.2-0.6,20.2l-2.1,3.4l1.5,3.7c-6.7,77.7-42.1,149.8-99.7,202.9c-58,53.5-133.4,83-212.4,83
				c-110.5,0-210.6-56.4-268-151l-0.7-2.5l-1.4-1.1c-21.2-36-34.8-75.3-40.3-116.8l1.4-3.6L4.6,293c-1.3-11.5-1.9-23.3-1.9-35
				c0-18,1.5-36.1,4.5-53.5l1.7-3.9l-0.6-2.2c7-36.4,20.3-70.9,39.5-102.6l3.4-1.9l0.6,0.2l0.6-0.4c0.5-0.4,1.5-1,1.8-1.1l1-0.3
				l0.3-0.5c0.1-0.1,7-11.7,9.8-15.7c1.3-0.8,3.3-2,3.7-2.2l0.9,1.2l1.1-1c0.1-0.1,3.2-2.9,10.6-12.8l0.9-1.4l-1-0.7
				c-0.1-0.1-0.2-0.2-0.2-0.1c0-0.6,0.6-3.1,0.9-3.6c0.2-0.4,0.3-0.6,0.5-0.7c0.1-0.1,10.7-12.5,19.2-19.8c0,0,1.4-1,3.5-1.3
				l0.4-0.1c0.4-0.2,9.4-4,20.5-13.7l0.3-0.3l0.1-0.4c0,0,0.4-1.6,2.7-4.7c2.4-3.1,8.3-6.7,12.9-7.7c3.4-0.8,4.4-0.5,4.3-0.6
				l4.1,5.9l1.1-0.6c0,0,3.4-1.9,8.5-3.6c2.8-1,2.5,0,3.2-0.2l-0.3-0.5l0,0L162.1,5c-0.8-0.2-1.2-0.3-2.7,0.2
				c-3.6,1.2-6.4,2.5-7.8,3.2l-2.7-3.9l-0.4-0.4c-0.9-0.9-3.2-1-6.8-0.1c-5.3,1.2-11.8,5.1-14.5,8.8c-2,2.7-2.8,4.5-3.1,5.4
				c-9.8,8.5-18.1,12.4-19.3,12.9c-2.8,0.4-4.6,1.7-4.7,1.8c-8.8,7.4-19.4,19.9-19.4,19.9v0c-0.2,0.2-0.6,0.6-1,1.4
				c-0.4,0.8-1.4,4.2-1.2,5.3c0.1,0.4,0.2,0.7,0.4,1c-4.9,6.6-7.8,9.7-9,11c-0.4-0.1-0.9-0.1-1.3-0.1c-1.4,0.4-4.4,2.3-5,2.7
				l-0.4,0.4c-2.5,3.5-8.5,13.4-9.8,15.7l-0.1,0c-0.6,0.2-1.4,0.7-1.9,1.1L51,91l-5.1,2.8l-0.2,0.3c-19.6,32.2-33,67.2-40.1,104.1
				l-0.1,0.3l0.5,1.9l-1.4,3.4C1.6,221.6,0,239.9,0,258c0,11.9,0.7,23.9,2,35.7l1.9,3l-1.2,2.9l0,0.4c5.6,42,19.3,81.9,40.9,118.4
				l1.2,1.1l0.5,1.8l0.1,0.3c57.8,95.5,158.9,152.4,270.4,152.4c79.6,0,155.7-29.7,214.2-83.7c58.2-53.7,93.9-126.5,100.6-205l0-0.3
				l-1.3-3.1l1.5-2.6l0.2-0.6c0.4-7.1,0.7-14.1,0.7-20.7C631.8,230.2,628.2,202.7,621.1,176.1z"/>
		</g>
	</g>
</g>
</svg>
